<svg width="25" height="25" viewBox="0 0 25 25" fill="none" xmlns="http://www.w3.org/2000/svg">
<path d="M2.50781 12.0381C2.50781 7.54554 2.50781 5.29926 3.90347 3.90359C5.29914 2.50793 7.54541 2.50793 12.038 2.50793C16.5305 2.50793 18.7768 2.50793 20.1725 3.90359C21.5681 5.29926 21.5681 7.54554 21.5681 12.0381C21.5681 16.5306 21.5681 18.7769 20.1725 20.1726C18.7768 21.5683 16.5305 21.5683 12.038 21.5683C7.54541 21.5683 5.29914 21.5683 3.90347 20.1726C2.50781 18.7769 2.50781 16.5306 2.50781 12.0381Z" stroke="#004F57" stroke-width="2" stroke-linejoin="round"/>
<path d="M16.0505 8.05188H14.0258C12.9787 8.05188 12.1276 8.89665 12.1198 9.94379L12.0343 21.4949M9.02832 14.0462H15.7162" stroke="#004F57" stroke-width="2" stroke-linecap="round" stroke-linejoin="round"/>
</svg>
