<svg width="25" height="25" viewBox="0 0 25 25" fill="none" xmlns="http://www.w3.org/2000/svg">
<path d="M2.50781 12.5191C2.50781 8.16692 2.50781 5.99084 3.90347 4.63879C5.29914 3.28674 7.54541 3.28674 12.038 3.28674C16.5305 3.28674 18.7768 3.28674 20.1725 4.63879C21.5681 5.99084 21.5681 8.16692 21.5681 12.5191C21.5681 16.8712 21.5681 19.0473 20.1725 20.3994C18.7768 21.7514 16.5305 21.7514 12.038 21.7514C7.54541 21.7514 5.29914 21.7514 3.90347 20.3994C2.50781 19.0473 2.50781 16.8712 2.50781 12.5191Z" stroke="#004F57" stroke-width="2" stroke-linejoin="round"/>
<path d="M16.5525 12.5191C16.5525 14.9344 14.5314 16.8923 12.0382 16.8923C9.54504 16.8923 7.52393 14.9344 7.52393 12.5191C7.52393 10.1038 9.54504 8.14587 12.0382 8.14587C14.5314 8.14587 16.5525 10.1038 16.5525 12.5191Z" stroke="#004F57" stroke-width="2"/>
<path d="M17.5645 7.17407H17.5542" stroke="#004F57" stroke-width="2" stroke-linecap="round" stroke-linejoin="round"/>
</svg>
