<svg width="25" height="25" viewBox="0 0 25 25" fill="none" xmlns="http://www.w3.org/2000/svg">
<path d="M7.02246 10.5374V17.3401" stroke="#004F57" stroke-width="2" stroke-linecap="round" stroke-linejoin="round"/>
<path d="M11.0352 13.4528V17.3401M11.0352 13.4528C11.0352 11.8426 12.3825 10.5374 14.0447 10.5374C15.7068 10.5374 17.0542 11.8426 17.0542 13.4528V17.3401M11.0352 13.4528V10.5374" stroke="#004F57" stroke-width="2" stroke-linecap="round" stroke-linejoin="round"/>
<path d="M7.03124 7.62183H7.021" stroke="#004F57" stroke-width="2" stroke-linecap="round" stroke-linejoin="round"/>
<path d="M2.50781 12.4809C2.50781 8.12871 2.50781 5.95263 3.90347 4.60058C5.29914 3.24854 7.54541 3.24854 12.038 3.24854C16.5305 3.24854 18.7768 3.24854 20.1725 4.60058C21.5681 5.95263 21.5681 8.12871 21.5681 12.4809C21.5681 16.833 21.5681 19.0091 20.1725 20.3612C18.7768 21.7132 16.5305 21.7132 12.038 21.7132C7.54541 21.7132 5.29914 21.7132 3.90347 20.3612C2.50781 19.0091 2.50781 16.833 2.50781 12.4809Z" stroke="#004F57" stroke-width="2" stroke-linejoin="round"/>
</svg>
