<svg width="47" height="36" viewBox="0 0 47 36" fill="none" xmlns="http://www.w3.org/2000/svg">
<g clip-path="url(#clip0_138_5346)">
<path d="M47 15.649L46.135 13.4993L38.5688 16.4941L38.4362 16.3012C36.99 14.1761 35.0911 12.3858 32.8712 11.0547L37.8018 4.09516L35.8757 2.76792L30.7374 9.98267C28.82 9.16292 26.7697 8.68472 24.6822 8.57035V0H22.3236V8.58736C20.2186 8.73907 18.1582 9.25963 16.2395 10.1245L11.009 2.75091L9.07705 4.09516L14.1577 11.2362C12.0179 12.5634 10.1913 14.3251 8.80025 16.4033L8.67914 16.5962L0.882331 13.4993L0 15.649L7.53153 18.6381C6.43271 20.9457 5.86559 23.4635 5.87067 26.0117C5.87067 26.3125 5.99219 26.6011 6.20849 26.8138C6.42479 27.0265 6.71816 27.1461 7.02405 27.1461H13.0101C13.4411 29.6158 14.746 31.8563 16.694 33.4714C18.642 35.0865 21.1079 35.9723 23.6557 35.9723C26.2035 35.9723 28.6694 35.0865 30.6174 33.4714C32.5655 31.8563 33.8703 29.6158 34.3013 27.1461H40.2874C40.5933 27.1461 40.8866 27.0265 41.1029 26.8138C41.3192 26.6011 41.4407 26.3125 41.4407 26.0117C41.4399 23.4166 40.8488 20.8546 39.7107 18.5133L47 15.649ZM23.7941 24.9C23.1823 24.9 22.5956 25.139 22.163 25.5645C21.7304 25.9899 21.4874 26.567 21.4874 27.1687H32.0869C31.649 29.0457 30.5766 30.7209 29.0451 31.9207C27.5136 33.1205 25.6136 33.7738 23.6557 33.7738C21.6978 33.7738 19.7978 33.1205 18.2663 31.9207C16.7348 30.7209 15.6625 29.0457 15.2245 27.1687C15.1375 26.7955 15.0796 26.4163 15.0515 26.0343C15.0515 25.9266 15.0515 25.8131 15.0515 25.7054C15.0515 25.4388 15.0861 25.1382 15.1207 24.9056C15.3754 23.1476 16.183 21.512 17.4303 20.2281C18.6776 18.9442 20.3021 18.0763 22.0761 17.7461C23.8501 17.4159 25.6846 17.64 27.3227 18.3868C28.9607 19.1337 30.3201 20.3659 31.2103 21.9108C31.5035 22.4267 31.9342 22.8542 32.4559 23.1473C32.9822 23.4452 33.5788 23.6017 34.186 23.6011C33.6104 21.1506 32.1696 18.9805 30.1199 17.4768C28.0702 15.9731 25.5446 15.2334 22.9925 15.3893C20.4403 15.5451 18.0272 16.5865 16.1824 18.328C14.3376 20.0695 13.1808 22.3983 12.9178 24.9H8.21779C8.35365 23.0453 8.83861 21.2317 9.64797 19.5513C9.95744 18.8924 10.32 18.2589 10.7321 17.6568C12.9135 14.3982 16.2836 12.0877 20.1469 11.2021C24.0101 10.3166 28.0715 10.9237 31.4929 12.8981L31.5909 12.9605C33.5595 14.1268 35.2429 15.705 36.5216 17.5831C36.9312 18.1888 37.2973 18.8218 37.6173 19.4775C38.4563 21.184 38.9573 23.0319 39.0936 24.9226L23.7941 24.9Z" fill="white"/>
</g>
<defs>
<clipPath id="clip0_138_5346">
<rect width="47" height="36" fill="white"/>
</clipPath>
</defs>
</svg>
