<svg width="38" height="38" viewBox="0 0 38 38" fill="none" xmlns="http://www.w3.org/2000/svg">
<path d="M23.0225 3.16675V7.10326C23.0225 9.87085 23.0225 11.2546 23.3613 12.5831C23.7001 13.9115 24.3642 15.1313 25.6923 17.5708L27.4919 20.8766C30.8763 27.0933 32.5685 30.2017 31.1803 32.5059L31.1587 32.5411C29.7502 34.8334 26.1668 34.8334 19 34.8334C11.8332 34.8334 8.24974 34.8334 6.84127 32.5411L6.81982 32.5059C5.43155 30.2017 7.12371 27.0933 10.5081 20.8766L12.3077 17.5708C13.6358 15.1313 14.2999 13.9115 14.6387 12.5831C14.9775 11.2546 14.9775 9.87085 14.9775 7.10326V3.16675" stroke="white" stroke-width="1.5"/>
<path d="M14.25 25.3368L14.2645 25.3328" stroke="white" stroke-width="2" stroke-linecap="round" stroke-linejoin="round"/>
<path d="M23.75 28.5033L23.7645 28.4993" stroke="white" stroke-width="2" stroke-linecap="round" stroke-linejoin="round"/>
<path d="M12.6667 3.16675H25.3333" stroke="white" stroke-width="1.5" stroke-linecap="round" stroke-linejoin="round"/>
<path d="M11.875 18.2975C13.4583 16.4712 15.9907 17.7876 19 19.5038C22.9583 21.7612 25.3333 20.0291 26.125 18.3907" stroke="white" stroke-width="1.5" stroke-linecap="round"/>
</svg>
