<svg width="37" height="42" viewBox="0 0 37 42" fill="none" xmlns="http://www.w3.org/2000/svg">
<path d="M26.237 42.0002C26.8189 42.0002 27.295 41.5241 27.295 40.9422C27.295 40.3604 26.8189 39.8843 26.237 39.8843H4.54918C3.96732 39.8843 3.49124 40.3604 3.49124 40.9422C3.49124 41.5241 3.96732 42.0002 4.54918 42.0002H26.237Z" fill="white"/>
<path d="M9.83884 10.7911V4.76082C9.83884 4.17896 9.36276 3.70288 8.7809 3.70288C8.19903 3.70288 7.72295 4.17896 7.72295 4.76082V10.844C7.72295 11.4259 8.19903 11.9019 8.7809 11.9019C9.36276 11.9019 9.83884 11.373 9.83884 10.7911Z" fill="white"/>
<path d="M16.451 10.6323V1.05794C16.451 0.476074 15.9749 0 15.393 0C14.8112 0 14.3351 0.476074 14.3351 1.05794V10.6323C14.3351 11.2142 14.8112 11.6903 15.393 11.6903C15.9749 11.6903 16.451 11.2142 16.451 10.6323Z" fill="white"/>
<path d="M23.0633 10.6324V4.76082C23.0633 4.17896 22.5872 3.70288 22.0054 3.70288C21.4235 3.70288 20.9474 4.17896 20.9474 4.76082V10.6853C20.9474 11.2672 21.4235 11.7432 22.0054 11.7432C22.5872 11.7432 23.0633 11.2143 23.0633 10.6324Z" fill="white"/>
<path d="M31.7383 18.9375H30.7861V16.0282C30.7861 15.4463 30.3101 14.9702 29.7282 14.9702H1.05794C0.476074 14.9702 0 15.4463 0 16.0282V20.7889C0 29.3053 6.92953 36.182 15.3931 36.182C21.0531 36.182 26.0254 33.1139 28.7232 28.5119H28.7761H31.7383C34.3832 28.5119 36.5519 26.3431 36.5519 23.6982C36.499 21.1063 34.3832 18.9375 31.7383 18.9375ZM15.3931 34.0661C8.04037 34.0661 2.11589 28.0887 2.11589 20.7889V17.0861H28.6703V20.7889C28.6703 28.0887 22.6929 34.0661 15.3931 34.0661ZM31.7383 26.4489H29.7282C30.363 24.7562 30.7861 22.9577 30.7861 21.0534H31.7383C33.2194 21.0534 34.436 22.27 34.436 23.7511C34.3832 25.2323 33.2194 26.4489 31.7383 26.4489Z" fill="white"/>
</svg>
