<svg width="25" height="25" viewBox="0 0 25 25" fill="none" xmlns="http://www.w3.org/2000/svg">
<path d="M12.0381 22.9937C17.5784 22.9937 22.0698 18.5023 22.0698 12.9619C22.0698 7.42154 17.5784 2.93018 12.0381 2.93018C6.49771 2.93018 2.00635 7.42154 2.00635 12.9619C2.00635 14.3452 2.2863 15.6631 2.79266 16.862C3.0725 17.5245 3.21242 17.8558 3.22975 18.1062C3.24707 18.3566 3.17338 18.632 3.02599 19.1828L2.00635 22.9937L5.81718 21.974C6.36803 21.8267 6.64346 21.7529 6.89383 21.7703C7.14422 21.7876 7.47551 21.9275 8.1381 22.2074C9.337 22.7137 10.6548 22.9937 12.0381 22.9937Z" stroke="#004F57" stroke-width="2" stroke-linejoin="round"/>
<path d="M8.61565 13.3404L9.48936 12.2553C9.85759 11.7979 10.3128 11.3722 10.3485 10.7632C10.3574 10.6094 10.2493 9.91886 10.0328 8.53778C9.94773 7.99501 9.44097 7.94604 9.00205 7.94604C8.43006 7.94604 8.14406 7.94605 7.86006 8.07577C7.50112 8.23972 7.1326 8.70074 7.05172 9.08699C6.98774 9.39258 7.03529 9.60316 7.13039 10.0243C7.53431 11.8131 8.48189 13.5797 9.95121 15.049C11.4206 16.5184 13.1872 17.466 14.9759 17.8699C15.3971 17.965 15.6076 18.0125 15.9133 17.9485C16.2995 17.8676 16.7605 17.4992 16.9245 17.1401C17.0542 16.8561 17.0542 16.5702 17.0542 15.9982C17.0542 15.5592 17.0053 15.0525 16.4624 14.9675C15.0814 14.751 14.3909 14.6428 14.237 14.6518C13.6281 14.6875 13.2023 15.1426 12.745 15.5109L11.6598 16.3845" stroke="#004F57" stroke-width="2"/>
</svg>
