<svg width="25" height="26" viewBox="0 0 25 26" fill="none" xmlns="http://www.w3.org/2000/svg">
<path d="M2.50781 12.9999C2.50781 8.50733 2.50781 6.26105 3.90347 4.86538C5.29914 3.46973 7.54542 3.46973 12.038 3.46973C16.5306 3.46973 18.7768 3.46973 20.1725 4.86538C21.5681 6.26105 21.5681 8.50733 21.5681 12.9999C21.5681 17.4924 21.5681 19.7387 20.1725 21.1344C18.7768 22.53 16.5306 22.53 12.038 22.53C7.54542 22.53 5.29914 22.53 3.90347 21.1344C2.50781 19.7387 2.50781 17.4924 2.50781 12.9999Z" stroke="#004F57" stroke-width="2" stroke-linecap="round" stroke-linejoin="round"/>
<path d="M7.02246 18.0159L11.2294 13.8091M11.2294 13.8091L7.02246 7.98413H9.80906L12.8474 12.1909M11.2294 13.8091L14.2676 18.0159H17.0542L12.8474 12.1909M17.0542 7.98413L12.8474 12.1909" stroke="#004F57" stroke-width="2" stroke-linecap="round" stroke-linejoin="round"/>
</svg>
