<svg width="138" height="78" viewBox="0 0 138 78" fill="none" xmlns="http://www.w3.org/2000/svg">
<path d="M88.0732 68.1685H89.5347L87.0501 70.5363L89.7978 74.3363H88.3947L86.2024 71.2086L85.4131 71.9101V74.3363H84.3024V68.1685H85.4131V70.1563C85.3839 70.4353 85.2941 70.7047 85.1501 70.9455H85.3255C85.4199 70.6896 85.5584 70.4521 85.7347 70.244L88.0732 68.1685Z" fill="#045058"/>
<path d="M96.2581 68.1685H97.5735L99.9705 74.3071H98.7428L97.9243 72.1732H95.9658L95.2058 74.3071H94.0073L96.2581 68.1685ZM97.0766 69.6886C97.0333 69.4764 97.0333 69.2577 97.0766 69.0455H96.872C96.9153 69.2577 96.9153 69.4764 96.872 69.6886L96.1704 71.2963H97.8658L97.0766 69.6886Z" fill="#045058"/>
<path d="M105.933 69.2793V70.8578H108.593V71.9686H105.933V74.3363H104.764V68.1685H109.061V69.2793H105.933Z" fill="#045058"/>
<path d="M115.463 69.2793V70.8578H118.123V71.9686H115.463V74.3363H114.323V68.1685H118.62V69.2793H115.463Z" fill="#045058"/>
<path d="M123.852 68.1685H128.149V69.2501H124.963V70.6532H127.886V71.7347H124.963V73.2548H128.208V74.3363H123.852V68.1685Z" fill="#045058"/>
<path d="M133.294 68.1685H137.561V69.2501H134.463V70.6532H137.386V71.7347H134.463V73.2548H137.678V74.3363H133.294V68.1685Z" fill="#045058"/>
<path d="M84.7704 16.5172C80.3902 16.5172 76.1894 18.2572 73.0921 21.3545C69.9948 24.4517 68.2548 28.6525 68.2548 33.0327C68.2419 33.1832 68.2616 33.3346 68.3125 33.4768C68.3634 33.6189 68.4442 33.7485 68.5496 33.8566C68.655 33.9648 68.7824 34.049 68.9232 34.1035C69.064 34.1581 69.2148 34.1817 69.3656 34.1727H100.234C100.386 34.1812 100.538 34.1575 100.68 34.1032C100.822 34.0489 100.951 33.9652 101.059 33.8576C101.166 33.75 101.25 33.621 101.304 33.4788C101.358 33.3367 101.382 33.1847 101.374 33.0327C101.37 30.8576 100.937 28.7045 100.1 26.6968C99.2634 24.689 98.0389 22.866 96.4968 21.332C94.9546 19.798 93.1251 18.5831 91.113 17.757C89.1008 16.9308 86.9455 16.5095 84.7704 16.5172ZM70.5056 31.8927C70.7871 28.3064 72.4106 24.9581 75.0519 22.516C77.6933 20.0738 81.1584 18.7174 84.7557 18.7174C88.3531 18.7174 91.8182 20.0738 94.4595 22.516C97.1009 24.9581 98.7244 28.3064 99.0059 31.8927H70.5056Z" fill="#F89F1F"/>
<path d="M83.6008 21.1942C80.6695 21.5548 77.9688 22.9675 76.0007 25.1696C75.8919 25.2733 75.8053 25.398 75.7462 25.5362C75.687 25.6744 75.6565 25.8231 75.6565 25.9734C75.6565 26.1237 75.687 26.2725 75.7462 26.4107C75.8053 26.5488 75.8919 26.6736 76.0007 26.7773C76.2053 27.0111 76.4392 27.0111 76.7899 27.0111C76.9567 27.0157 77.1227 26.9871 77.2783 26.9269C77.4339 26.8666 77.5759 26.776 77.6961 26.6604C79.289 24.8288 81.5105 23.6607 83.9223 23.3865C84.2164 23.337 84.4825 23.1821 84.6707 22.9508C84.859 22.7195 84.9566 22.4276 84.9454 22.1295C84.77 21.5449 84.2731 21.0772 83.6008 21.1942Z" fill="#F89F1F"/>
<path d="M65.244 31.8927H52.9377C52.7858 31.8843 52.6338 31.908 52.4916 31.9623C52.3495 32.0166 52.2204 32.1002 52.1128 32.2078C52.0052 32.3154 51.9215 32.4445 51.8672 32.5867C51.8129 32.7288 51.7892 32.8808 51.7977 33.0327C51.7892 33.1847 51.8129 33.3367 51.8672 33.4788C51.9215 33.621 52.0052 33.7501 52.1128 33.8576C52.2204 33.9652 52.3495 34.0489 52.4916 34.1032C52.6338 34.1575 52.7858 34.1812 52.9377 34.1727H65.244C65.3971 34.1861 65.5512 34.1658 65.6956 34.1133C65.84 34.0607 65.9711 33.9772 66.0798 33.8685C66.1885 33.7599 66.272 33.6288 66.3245 33.4844C66.3771 33.34 66.3974 33.1858 66.384 33.0327C66.384 32.883 66.3545 32.7348 66.2972 32.5965C66.2399 32.4582 66.156 32.3325 66.0501 32.2266C65.9443 32.1208 65.8186 32.0368 65.6803 31.9795C65.5419 31.9222 65.3937 31.8927 65.244 31.8927Z" fill="#F89F1F"/>
<path d="M68.7808 23.7957C68.8582 23.6639 68.9083 23.5179 68.928 23.3664C68.9478 23.2148 68.937 23.0608 68.8961 22.9136C68.8552 22.7663 68.7851 22.6288 68.6899 22.5092C68.5948 22.3895 68.4766 22.2903 68.3424 22.2172L57.7315 16.0495C57.4628 15.9525 57.1684 15.9546 56.9012 16.0555C56.634 16.1564 56.4116 16.3494 56.2741 16.5997C56.1366 16.8501 56.093 17.1413 56.1512 17.4209C56.2094 17.7005 56.3655 17.9502 56.5915 18.1249L67.2316 24.2634C67.4121 24.3216 67.6064 24.3216 67.787 24.2634C67.9783 24.2728 68.1689 24.2351 68.3422 24.1535C68.5155 24.072 68.6661 23.9491 68.7808 23.7957Z" fill="#F89F1F"/>
<path d="M74.0131 16.6343C74.1224 16.8061 74.2736 16.9473 74.4527 17.0445C74.6317 17.1417 74.8325 17.1916 75.0362 17.1897C75.2287 17.2325 75.4283 17.2325 75.6208 17.1897C75.8846 17.0057 76.07 16.7296 76.1403 16.4158C76.2107 16.102 76.1609 15.7732 76.0008 15.4942L69.8623 4.91259C69.7038 4.65295 69.4547 4.46136 69.163 4.37496C68.8714 4.28855 68.5581 4.31347 68.2838 4.44489C68.0219 4.60862 67.8295 4.86301 67.7433 5.15954C67.657 5.45606 67.6829 5.77397 67.8161 6.0526L74.0131 16.6343Z" fill="#F89F1F"/>
<path d="M84.77 14.6172C84.9219 14.6257 85.0739 14.602 85.2161 14.5477C85.3582 14.4934 85.4873 14.4097 85.5949 14.3021C85.7025 14.1945 85.7862 14.0654 85.8405 13.9233C85.8948 13.7811 85.9185 13.6291 85.91 13.4772V1.14169C85.9185 0.989758 85.8948 0.837755 85.8405 0.695609C85.7862 0.553463 85.7025 0.424375 85.5949 0.316779C85.4873 0.209183 85.3582 0.125502 85.2161 0.0712039C85.0739 0.0169057 84.9219 -0.00678726 84.77 0.00167317C84.6181 -0.00678726 84.466 0.0169057 84.3239 0.0712039C84.1818 0.125502 84.0527 0.209183 83.9451 0.316779C83.8375 0.424375 83.7538 0.553463 83.6995 0.695609C83.6452 0.837755 83.6215 0.989758 83.63 1.14169V13.448C83.6261 13.6001 83.6527 13.7515 83.7082 13.8932C83.7637 14.0349 83.8471 14.1641 83.9534 14.2731C84.0596 14.382 84.1866 14.4686 84.3269 14.5277C84.4671 14.5868 84.6178 14.6173 84.77 14.6172Z" fill="#F89F1F"/>
<path d="M78.573 14.3541C78.6498 14.5926 78.8031 14.7993 79.0092 14.9419C79.2153 15.0846 79.4626 15.1554 79.713 15.1433H80.0638C80.2075 15.1133 80.3434 15.0535 80.4627 14.9679C80.582 14.8822 80.682 14.7725 80.7563 14.6459C80.8307 14.5192 80.8777 14.3784 80.8943 14.2325C80.911 14.0866 80.8969 13.9388 80.853 13.7987L79.1576 7.95246C79.1241 7.8076 79.0611 7.67121 78.9725 7.5518C78.8839 7.4324 78.7716 7.33254 78.6426 7.25848C78.5137 7.18441 78.3709 7.13773 78.2231 7.12134C78.0753 7.10495 77.9258 7.1192 77.7837 7.16322C77.64 7.19322 77.5041 7.25298 77.3848 7.33865C77.2656 7.42432 77.1655 7.53401 77.0912 7.66066C77.0169 7.78731 76.9699 7.92812 76.9532 8.07402C76.9365 8.21993 76.9506 8.36771 76.9945 8.50785L78.573 14.3541Z" fill="#F89F1F"/>
<path d="M69.9208 20.0542C70.0246 20.1629 70.1493 20.2495 70.2875 20.3087C70.4256 20.3679 70.5744 20.3984 70.7247 20.3984C70.875 20.3984 71.0237 20.3679 71.1619 20.3087C71.3001 20.2495 71.4248 20.1629 71.5285 20.0542C71.741 19.8406 71.8602 19.5516 71.8602 19.2503C71.8602 18.9491 71.741 18.6601 71.5285 18.4465L67.2316 14.1203C67.018 13.9078 66.729 13.7886 66.4277 13.7886C66.1265 13.7886 65.8375 13.9078 65.6239 14.1203C65.5151 14.224 65.4285 14.3487 65.3693 14.4869C65.3102 14.6251 65.2797 14.7738 65.2797 14.9241C65.2797 15.0744 65.3102 15.2232 65.3693 15.3613C65.4285 15.4995 65.5151 15.6242 65.6239 15.728L69.9208 20.0542Z" fill="#F89F1F"/>
<path d="M65.9452 27.0989L60.099 25.5205C59.8132 25.4623 59.516 25.5104 59.2631 25.6557C59.0102 25.801 58.8189 26.0335 58.7252 26.3097C58.6616 26.5998 58.7108 26.9033 58.8628 27.1584C59.0148 27.4136 59.2582 27.6014 59.5436 27.6836L65.3899 29.2913H65.7406C65.9858 29.2669 66.2202 29.1785 66.4203 29.0348C66.6204 28.8911 66.7792 28.6973 66.8806 28.4728C66.9067 28.1711 66.8278 27.8697 66.6574 27.6194C66.487 27.3691 66.2355 27.1853 65.9452 27.0989Z" fill="#F89F1F"/>
<path d="M116.749 31.8927H104.56C104.408 31.8843 104.256 31.908 104.114 31.9623C103.971 32.0166 103.842 32.1002 103.735 32.2078C103.627 32.3154 103.543 32.4445 103.489 32.5867C103.435 32.7288 103.411 32.8808 103.42 33.0327C103.406 33.1858 103.427 33.34 103.479 33.4844C103.532 33.6288 103.615 33.7599 103.724 33.8685C103.833 33.9772 103.964 34.0607 104.108 34.1133C104.252 34.1658 104.407 34.1861 104.56 34.1727H116.749C116.901 34.1812 117.053 34.1575 117.195 34.1032C117.337 34.0489 117.466 33.9652 117.574 33.8576C117.682 33.7501 117.765 33.621 117.82 33.4788C117.874 33.3367 117.898 33.1847 117.889 33.0327C117.898 32.8808 117.874 32.7288 117.82 32.5867C117.765 32.4445 117.682 32.3154 117.574 32.2078C117.466 32.1002 117.337 32.0166 117.195 31.9623C117.053 31.908 116.901 31.8843 116.749 31.8927Z" fill="#F89F1F"/>
<path d="M113.446 16.5173C113.274 16.2647 113.019 16.0799 112.726 15.9946C112.433 15.9092 112.119 15.9287 111.838 16.0496L101.256 22.2173C100.997 22.3758 100.805 22.6249 100.719 22.9166C100.632 23.2082 100.657 23.5215 100.789 23.7958C100.897 23.9712 101.047 24.1167 101.226 24.2189C101.404 24.321 101.606 24.3766 101.812 24.3804C102.003 24.4357 102.205 24.4357 102.396 24.3804L112.978 18.2419C113.132 18.17 113.269 18.0653 113.379 17.9351C113.488 17.805 113.568 17.6524 113.613 17.4882C113.657 17.324 113.665 17.152 113.636 16.9843C113.608 16.8166 113.543 16.6572 113.446 16.5173Z" fill="#F89F1F"/>
<path d="M94.0657 16.985C94.2567 17.0402 94.4594 17.0402 94.6503 16.985C94.8531 16.9676 95.0496 16.9063 95.2262 16.8053C95.4029 16.7044 95.5555 16.5662 95.6734 16.4004L101.812 5.84797C101.89 5.71392 101.94 5.5657 101.961 5.41193C101.981 5.25816 101.97 5.10192 101.929 4.9523C101.889 4.80268 101.818 4.66267 101.723 4.54043C101.628 4.41818 101.509 4.31615 101.373 4.24026C101.239 4.15919 101.089 4.10687 100.933 4.0866C100.777 4.06633 100.618 4.07854 100.467 4.12247C100.316 4.16639 100.176 4.24108 100.055 4.34184C99.9346 4.4426 99.836 4.56725 99.7658 4.70795L93.5396 15.3773C93.4044 15.6616 93.3836 15.987 93.4816 16.2862C93.5795 16.5854 93.7886 16.8356 94.0657 16.985Z" fill="#F89F1F"/>
<path d="M89.7395 15.1434H90.0903C90.3332 15.1248 90.5668 15.0418 90.7672 14.9032C90.9675 14.7645 91.1273 14.575 91.2303 14.3542L92.8088 8.50795C92.8726 8.2255 92.8266 7.92935 92.68 7.67962C92.5334 7.42989 92.2973 7.2453 92.0196 7.16332C91.7333 7.09841 91.4331 7.14354 91.1786 7.28976C90.924 7.43597 90.7338 7.67257 90.6457 7.95256L89.0672 13.7988C88.986 13.9265 88.9393 14.0731 88.9316 14.2242C88.9238 14.3753 88.9553 14.5259 89.023 14.6613C89.0907 14.7966 89.1922 14.9122 89.3178 14.9967C89.4434 15.0812 89.5886 15.1317 89.7395 15.1434Z" fill="#F89F1F"/>
<path d="M98.1873 20.0542C98.3942 20.2701 98.6777 20.3961 98.9766 20.405C99.2741 20.3902 99.5555 20.2651 99.7658 20.0542L104.092 15.728C104.201 15.6242 104.287 15.4995 104.347 15.3613C104.406 15.2232 104.436 15.0744 104.436 14.9241C104.436 14.7738 104.406 14.6251 104.347 14.4869C104.287 14.3487 104.201 14.224 104.092 14.1203C103.989 14.016 103.866 13.9332 103.73 13.8767C103.595 13.8202 103.45 13.7911 103.303 13.7911C103.156 13.7911 103.011 13.8202 102.875 13.8767C102.74 13.9332 102.617 14.016 102.514 14.1203L98.1873 18.4465C98.0786 18.5502 97.992 18.6749 97.9328 18.8131C97.8737 18.9513 97.8431 19.1 97.8431 19.2503C97.8431 19.4006 97.8737 19.5494 97.9328 19.6875C97.992 19.8257 98.0786 19.9504 98.1873 20.0542Z" fill="#F89F1F"/>
<path d="M104.092 29.2328H104.443L110.289 27.6251C110.427 27.5909 110.558 27.5297 110.672 27.445C110.787 27.3603 110.884 27.2538 110.957 27.1315C111.03 27.0093 111.079 26.8737 111.1 26.7327C111.12 26.5917 111.113 26.4479 111.078 26.3097C111.041 26.167 110.976 26.0331 110.886 25.9159C110.797 25.7987 110.685 25.7005 110.557 25.627C110.429 25.5536 110.288 25.5063 110.141 25.488C109.995 25.4697 109.846 25.4807 109.704 25.5205L103.858 27.0989C103.715 27.1362 103.582 27.2015 103.464 27.291C103.347 27.3805 103.249 27.4925 103.175 27.6204C103.102 27.7483 103.055 27.8895 103.036 28.0359C103.018 28.1822 103.029 28.3308 103.069 28.4728C103.141 28.6892 103.278 28.8782 103.461 29.0141C103.644 29.1501 103.864 29.2264 104.092 29.2328Z" fill="#F89F1F"/>
<path d="M6.89854 64.7777H0V27.9465H6.89854L23.6772 50.2206C24.9857 52.3429 25.9709 54.6482 26.6003 57.0607L27.7695 56.6807C26.7909 54.3634 26.1794 51.9078 25.9572 49.4022V27.9465H32.8558V64.7777H25.9864L9.2078 42.5621C7.89422 40.432 6.90881 38.1163 6.28469 35.6928L5.20314 36.102C6.15582 38.416 6.75685 40.8595 6.98623 43.3513L6.89854 64.7777Z" fill="#045058"/>
<path d="M39.345 27.9465H46.3604V34.5235H39.345V27.9465ZM39.725 38.4697H46.0974V64.7777H39.725V38.4697Z" fill="#045058"/>
<path d="M65.1268 65.6255C63.2966 65.623 61.4857 65.251 59.8027 64.5317C58.1198 63.8124 56.5994 62.7606 55.3328 61.4395C54.0662 60.1183 53.0795 58.5549 52.4318 56.8431C51.7841 55.1313 51.4888 53.3063 51.5636 51.4776C51.4913 49.6662 51.7908 47.8592 52.4438 46.168C53.0967 44.4768 54.0893 42.9374 55.3601 41.6446C56.631 40.3518 58.1533 39.3331 59.833 38.6513C61.5128 37.9695 63.3145 37.6391 65.1268 37.6805C66.7056 37.5993 68.2842 37.8456 69.7632 38.404C71.2422 38.9624 72.5896 39.8208 73.7208 40.9252C74.6763 42.364 75.3508 43.9708 75.7085 45.6606L76.8193 45.3098C76.0568 43.7533 75.5063 42.1017 75.1823 40.399V38.4113H81.5547V65.4501C81.5547 72.6117 77.4039 77.8733 66.4422 77.8733C57.6729 77.8733 52.7621 73.664 52.2944 67.1455H59.1345C59.7775 70.9455 62.613 71.8809 66.1499 71.8809C72.3469 71.8809 75.0946 69.1916 75.0946 64.7193C75.0946 63.8716 75.0946 63.1993 75.0946 62.4685C75.4138 60.8245 75.9546 59.2315 76.7023 57.7331L75.6208 57.2946C75.3079 58.9697 74.6726 60.568 73.75 62.0008C72.6395 63.166 71.3005 64.0893 69.8167 64.713C68.3329 65.3367 66.7363 65.6473 65.1268 65.6255ZM65.9161 59.4285C66.9116 59.5299 67.9173 59.4232 68.8694 59.1153C69.8216 58.8073 70.6993 58.3049 71.4469 57.6397C72.1945 56.9746 72.7957 56.1613 73.2123 55.2514C73.6289 54.3416 73.8518 53.3551 73.8669 52.3545V51.0391C73.8547 50.0327 73.6348 49.0397 73.2209 48.1223C72.807 47.2049 72.208 46.3829 71.4615 45.7077C70.7151 45.0326 69.8372 44.519 68.8829 44.199C67.9287 43.879 66.9186 43.7596 65.9161 43.8483C64.8639 43.7618 63.8055 43.9034 62.8131 44.2633C61.8206 44.6233 60.9176 45.1932 60.1656 45.9341C59.4136 46.6751 58.8303 47.5695 58.4556 48.5565C58.0809 49.5435 57.9236 50.5997 57.9944 51.653C57.918 52.7063 58.0716 53.7637 58.4448 54.7517C58.8179 55.7397 59.4016 56.6347 60.1553 57.3745C60.909 58.1143 61.8147 58.6812 62.8095 59.0359C63.8043 59.3906 64.8643 59.5245 65.9161 59.4285Z" fill="#045058"/>
<path d="M98.5088 65.6256C96.6885 65.616 94.889 65.2377 93.219 64.5136C91.5489 63.7895 90.0429 62.7345 88.7917 61.4123C87.5406 60.0902 86.5703 58.5282 85.9394 56.8208C85.3085 55.1133 85.0301 53.2957 85.1209 51.4777C85.0325 49.6771 85.3151 47.8775 85.9512 46.1907C86.5873 44.5039 87.5634 42.9658 88.8188 41.672C90.0743 40.3782 91.5822 39.3563 93.2491 38.6697C94.916 37.9831 96.7063 37.6464 98.5088 37.6806C100.021 37.6103 101.53 37.8633 102.937 38.4228C104.343 38.9824 105.614 39.8355 106.664 40.9253C107.591 42.3956 108.217 44.0348 108.506 45.7484L109.617 45.3976C108.908 43.8167 108.426 42.1438 108.184 40.4284V38.4406H114.674V64.7486H108.155V62.5855C108.387 60.8774 108.87 59.2128 109.587 57.6455L108.418 57.2947C108.149 58.996 107.564 60.6319 106.693 62.1178C105.662 63.2575 104.397 64.161 102.985 64.7664C101.572 65.3718 100.045 65.6649 98.5088 65.6256ZM98.8595 59.6332C100.912 59.5123 102.835 58.5895 104.213 57.0638C105.591 55.5381 106.314 53.5318 106.226 51.4777C106.342 50.4621 106.236 49.4333 105.913 48.4632C105.59 47.4932 105.06 46.6054 104.358 45.862C103.656 45.1185 102.801 44.5374 101.851 44.1593C100.901 43.7812 99.8802 43.6152 98.8595 43.673C97.8577 43.6657 96.8652 43.8669 95.9453 44.2639C95.0255 44.661 94.1983 45.2451 93.5165 45.9792C92.8346 46.7133 92.313 47.5813 91.9848 48.5279C91.6566 49.4745 91.5291 50.4791 91.6102 51.4777C91.5308 52.4934 91.6571 53.5148 91.9818 54.4805C92.3064 55.4462 92.8226 56.3365 93.4995 57.098C94.1764 57.8595 95 58.4765 95.921 58.9122C96.842 59.3478 97.8415 59.593 98.8595 59.6332Z" fill="#045058"/>
<path d="M124.758 44.1114H119.497V38.4698H124.758V28.5312H131.16V38.4698H138V44.1114H131.16V55.95C131.16 58.1423 132.183 58.8731 134.638 58.8731H137.737V64.8654H131.54C126.571 64.8654 124.904 60.2469 124.904 56.0961L124.758 44.1114Z" fill="#045058"/>
</svg>
