<svg width="1735" height="1042" viewBox="0 0 1735 1042" fill="none" xmlns="http://www.w3.org/2000/svg">
<g clip-path="url(#clip0_164_4547)">
<rect width="1735" height="1042" fill="white"/>
<g opacity="0.2">
<path d="M1363.32 431.867C1358.7 430.095 1353.4 431.626 1350.72 435.5C1342.61 447.209 1339.72 456.537 1341.88 464.025C1343.69 470.327 1347.65 474.307 1351.14 477.82C1354.48 481.186 1357.37 484.091 1358.55 488.742C1360.34 495.836 1357.37 504.157 1349.72 513.464L1355.65 517.606C1364.71 506.595 1368.12 496.36 1365.8 487.184C1364.18 480.787 1360.17 476.75 1356.63 473.189C1353.44 469.97 1350.42 466.934 1349.07 462.262C1347.5 456.814 1350.17 449.049 1356.99 439.19C1357.73 438.126 1359.19 437.712 1360.47 438.199C1377.12 444.575 1389.2 464.248 1389.2 484.982C1389.2 511.629 1372.21 533.305 1351.32 533.305C1330.43 533.305 1313.44 511.629 1313.44 484.982C1313.44 461.953 1326.31 442.006 1344.03 437.561L1342.08 430.943C1321.17 436.187 1306 458.912 1306 484.982C1306 515.41 1326.33 540.163 1351.33 540.163C1376.32 540.163 1396.65 515.41 1396.65 484.982C1396.65 461.225 1382.94 439.38 1363.32 431.867Z" fill="#004F57"/>
<path d="M1411.64 340.196C1406.71 340.587 1402.59 344.253 1401.83 348.907C1399.57 362.966 1400.98 372.628 1406.15 378.456C1410.5 383.361 1415.79 385.247 1420.45 386.914C1424.91 388.512 1428.77 389.888 1431.84 393.578C1436.52 399.205 1437.42 407.996 1434.53 419.692L1441.67 420.873C1445.09 407.034 1443.76 396.328 1437.71 389.047C1433.5 383.971 1428.14 382.056 1423.41 380.367C1419.14 378.84 1415.11 377.399 1411.88 373.765C1408.12 369.525 1407.17 361.37 1409.09 349.533C1409.3 348.254 1410.44 347.25 1411.8 347.141C1429.57 345.719 1448.95 358.266 1457.88 376.975C1469.37 401.022 1463.37 427.904 1444.52 436.905C1425.67 445.907 1401 433.669 1389.52 409.622C1379.59 388.841 1382.61 365.297 1396.69 353.647L1392.07 348.519C1375.47 362.258 1371.57 389.303 1382.8 412.829C1395.92 440.286 1424.93 453.862 1447.48 443.091C1470.03 432.323 1477.72 401.222 1464.61 373.765C1454.37 352.328 1432.59 338.521 1411.64 340.196Z" fill="#004F57"/>
<path d="M1547.48 428.158C1544.08 424.561 1538.64 423.646 1534.54 425.976C1522.17 433.021 1515.52 440.178 1514.22 447.861C1513.13 454.328 1514.98 459.63 1516.6 464.306C1518.15 468.786 1519.5 472.655 1518.55 477.358C1517.1 484.531 1510.81 490.743 1499.89 495.821L1503.44 502.123C1516.37 496.119 1523.88 488.37 1525.76 479.094C1527.07 472.628 1525.21 467.253 1523.56 462.511C1522.07 458.225 1520.67 454.183 1521.47 449.388C1522.42 443.797 1528.18 437.95 1538.6 432.019C1539.73 431.38 1541.23 431.639 1542.16 432.63C1554.41 445.587 1556.78 468.551 1547.81 487.24C1536.27 511.261 1511.57 523.443 1492.74 514.4C1473.91 505.356 1467.98 478.461 1479.52 454.44C1489.49 433.682 1509.72 421.272 1527.62 424.939L1528.72 418.127C1507.61 413.803 1484.1 427.719 1472.81 451.22C1459.64 478.648 1467.25 509.763 1489.78 520.585C1512.3 531.404 1541.35 517.895 1554.53 490.467C1564.81 469.049 1561.91 443.425 1547.48 428.158Z" fill="#004F57"/>
</g>
<g opacity="0.2">
<path d="M1609.32 249.867C1604.7 248.095 1599.4 249.626 1596.72 253.5C1588.61 265.209 1585.72 274.537 1587.88 282.025C1589.69 288.327 1593.65 292.307 1597.14 295.82C1600.48 299.186 1603.37 302.091 1604.55 306.742C1606.34 313.836 1603.37 322.157 1595.72 331.464L1601.65 335.606C1610.71 324.595 1614.12 314.36 1611.8 305.184C1610.18 298.787 1606.17 294.75 1602.63 291.189C1599.44 287.97 1596.42 284.934 1595.07 280.262C1593.5 274.814 1596.17 267.049 1602.99 257.19C1603.73 256.126 1605.19 255.712 1606.47 256.199C1623.12 262.575 1635.2 282.248 1635.2 302.982C1635.2 329.629 1618.21 351.305 1597.32 351.305C1576.43 351.305 1559.44 329.629 1559.44 302.982C1559.44 279.953 1572.31 260.006 1590.03 255.561L1588.08 248.943C1567.17 254.187 1552 276.912 1552 302.982C1552 333.41 1572.33 358.163 1597.33 358.163C1622.32 358.163 1642.65 333.41 1642.65 302.982C1642.65 279.225 1628.94 257.38 1609.32 249.867Z" fill="#004F57"/>
<path d="M1657.64 158.196C1652.71 158.587 1648.59 162.253 1647.83 166.907C1645.57 180.966 1646.98 190.628 1652.15 196.456C1656.5 201.361 1661.79 203.247 1666.45 204.914C1670.91 206.512 1674.77 207.888 1677.84 211.578C1682.52 217.205 1683.42 225.996 1680.53 237.692L1687.67 238.873C1691.09 225.034 1689.76 214.328 1683.71 207.047C1679.5 201.971 1674.14 200.056 1669.41 198.367C1665.14 196.84 1661.11 195.399 1657.88 191.765C1654.12 187.525 1653.17 179.37 1655.09 167.533C1655.3 166.254 1656.44 165.25 1657.8 165.141C1675.57 163.719 1694.95 176.266 1703.88 194.975C1715.37 219.022 1709.37 245.904 1690.52 254.905C1671.67 263.907 1647 251.669 1635.52 227.622C1625.59 206.841 1628.61 183.297 1642.69 171.647L1638.07 166.519C1621.47 180.258 1617.57 207.303 1628.8 230.829C1641.92 258.286 1670.93 271.862 1693.48 261.091C1716.03 250.323 1723.72 219.222 1710.61 191.765C1700.37 170.328 1678.59 156.521 1657.64 158.196Z" fill="#004F57"/>
<path d="M1793.48 246.158C1790.08 242.561 1784.64 241.646 1780.54 243.976C1768.17 251.021 1761.52 258.178 1760.22 265.861C1759.13 272.328 1760.98 277.63 1762.6 282.306C1764.15 286.786 1765.5 290.655 1764.55 295.358C1763.1 302.531 1756.81 308.743 1745.89 313.821L1749.44 320.123C1762.37 314.119 1769.88 306.37 1771.76 297.094C1773.07 290.628 1771.21 285.253 1769.56 280.511C1768.07 276.225 1766.67 272.183 1767.47 267.388C1768.42 261.797 1774.18 255.95 1784.6 250.019C1785.73 249.38 1787.23 249.639 1788.16 250.63C1800.41 263.587 1802.78 286.551 1793.81 305.24C1782.27 329.261 1757.57 341.443 1738.74 332.4C1719.91 323.356 1713.98 296.461 1725.52 272.44C1735.49 251.682 1755.72 239.272 1773.62 242.939L1774.72 236.127C1753.61 231.803 1730.1 245.719 1718.81 269.22C1705.64 296.648 1713.25 327.763 1735.78 338.585C1758.3 349.404 1787.35 335.895 1800.53 308.467C1810.81 287.049 1807.91 261.425 1793.48 246.158Z" fill="#004F57"/>
</g>
</g>
<defs>
<clipPath id="clip0_164_4547">
<rect width="1735" height="1042" fill="white"/>
</clipPath>
</defs>
</svg>
