<svg width="30" height="36" viewBox="0 0 30 36" fill="none" xmlns="http://www.w3.org/2000/svg">
<path d="M18.9705 0.30439C17.4418 -0.279764 15.6873 0.224888 14.7988 1.50207C12.1162 5.36134 11.1599 8.43599 11.8733 10.9039C12.4739 12.9813 13.7841 14.2931 14.9381 15.4509C16.0432 16.5604 16.9995 17.5179 17.3892 19.0509C17.984 21.3893 16.9995 24.1319 14.4675 27.1997L16.4309 28.5651C19.428 24.9357 20.5574 21.5621 19.7894 18.5376C19.2547 16.4291 17.9276 15.0983 16.7566 13.9247C15.6987 12.8636 14.7009 11.8629 14.2547 10.323C13.7352 8.52731 14.6162 5.96771 16.8752 2.71834C17.12 2.3675 17.6038 2.23095 18.0254 2.3917C23.5358 4.49329 27.5339 10.9777 27.5339 17.8116C27.5339 26.5949 21.9107 33.7394 14.998 33.7394C8.0852 33.7394 2.46207 26.5949 2.46207 17.8116C2.46207 10.2211 6.72034 3.64646 12.5864 2.1811L11.9388 0C5.02072 1.72826 0 9.21867 0 17.8117C0 27.841 6.72819 36 15 36C23.2699 36 30 27.841 30 17.8117C29.9981 9.981 25.4634 2.78073 18.9705 0.30439Z" fill="white"/>
</svg>
