<svg width="37" height="42" viewBox="0 0 37 42" fill="none" xmlns="http://www.w3.org/2000/svg">
<path d="M26.237 42.0002C26.8189 42.0002 27.2949 41.5241 27.2949 40.9422C27.2949 40.3604 26.8189 39.8843 26.237 39.8843H4.54915C3.96729 39.8843 3.49121 40.3604 3.49121 40.9422C3.49121 41.5241 3.96729 42.0002 4.54915 42.0002H26.237Z" fill="white"/>
<path d="M9.83903 10.7909V4.76058C9.83903 4.17871 9.36296 3.70264 8.78109 3.70264C8.19922 3.70264 7.72314 4.17871 7.72314 4.76058V10.8438C7.72314 11.4256 8.19922 11.9017 8.78109 11.9017C9.36296 11.9017 9.83903 11.3727 9.83903 10.7909Z" fill="white"/>
<path d="M16.4508 10.6323V1.05794C16.4508 0.476074 15.9748 0 15.3929 0C14.811 0 14.335 0.476074 14.335 1.05794V10.6323C14.335 11.2142 14.811 11.6903 15.3929 11.6903C15.9748 11.6903 16.4508 11.2142 16.4508 10.6323Z" fill="white"/>
<path d="M23.0632 10.6322V4.76058C23.0632 4.17871 22.5871 3.70264 22.0052 3.70264C21.4233 3.70264 20.9473 4.17871 20.9473 4.76058V10.6851C20.9473 11.2669 21.4233 11.743 22.0052 11.743C22.5871 11.743 23.0632 11.214 23.0632 10.6322Z" fill="white"/>
<path d="M31.7383 18.9375H30.7861V16.0282C30.7861 15.4463 30.3101 14.9702 29.7282 14.9702H1.05794C0.476074 14.9702 0 15.4463 0 16.0282V20.7889C0 29.3053 6.92953 36.182 15.3931 36.182C21.0531 36.182 26.0254 33.1139 28.7232 28.5119H28.7761H31.7383C34.3832 28.5119 36.5519 26.3431 36.5519 23.6982C36.499 21.1063 34.3832 18.9375 31.7383 18.9375ZM15.3931 34.0661C8.04037 34.0661 2.11589 28.0887 2.11589 20.7889V17.0861H28.6703V20.7889C28.6703 28.0887 22.6929 34.0661 15.3931 34.0661ZM31.7383 26.4489H29.7282C30.363 24.7562 30.7861 22.9577 30.7861 21.0534H31.7383C33.2194 21.0534 34.436 22.27 34.436 23.7511C34.3832 25.2323 33.2194 26.4489 31.7383 26.4489Z" fill="white"/>
</svg>
