<svg width="148" height="84" viewBox="0 0 148 84" fill="none" xmlns="http://www.w3.org/2000/svg">
<path d="M94.4552 73.4764H96.0227L93.358 76.0285L96.3048 80.1245H94.8L92.4488 76.7532L91.6024 77.5094V80.1245H90.4111V73.4764H91.6024V75.6189C91.571 75.9197 91.4747 76.2101 91.3203 76.4696H91.5084C91.6097 76.1938 91.7582 75.9378 91.9472 75.7134L94.4552 73.4764Z" fill="white"/>
<path d="M103.233 73.4764H104.644L107.215 80.093H105.898L105.02 77.793H102.92L102.105 80.093H100.819L103.233 73.4764ZM104.111 75.1148C104.065 74.8861 104.065 74.6503 104.111 74.4216H103.892C103.938 74.6503 103.938 74.8861 103.892 75.1148L103.139 76.8477H104.957L104.111 75.1148Z" fill="white"/>
<path d="M113.61 74.6737V76.3751H116.463V77.5724H113.61V80.1245H112.356V73.4764H116.964V74.6737H113.61Z" fill="white"/>
<path d="M123.83 74.6737V76.3751H126.682V77.5724H123.83V80.1245H122.607V73.4764H127.215V74.6737H123.83Z" fill="white"/>
<path d="M132.827 73.4764H137.435V74.6422H134.018V76.1546H137.153V77.3203H134.018V78.9587H137.498V80.1245H132.827V73.4764Z" fill="white"/>
<path d="M142.953 73.4764H147.53V74.6422H144.207V76.1546H147.342V77.3203H144.207V78.9587H147.655V80.1245H142.953V73.4764Z" fill="white"/>
<path d="M90.9127 17.802C86.2151 17.802 81.7099 19.6775 78.3882 23.016C75.0665 26.3545 73.2004 30.8825 73.2004 35.6039C73.1866 35.7661 73.2077 35.9293 73.2623 36.0826C73.3168 36.2358 73.4035 36.3754 73.5165 36.492C73.6295 36.6086 73.7662 36.6993 73.9172 36.7581C74.0682 36.8169 74.23 36.8424 74.3917 36.8327H107.497C107.659 36.8418 107.822 36.8163 107.975 36.7578C108.127 36.6992 108.266 36.609 108.381 36.4931C108.497 36.3771 108.586 36.2379 108.645 36.0847C108.703 35.9315 108.728 35.7677 108.719 35.6039C108.715 33.2593 108.251 30.9386 107.353 28.7744C106.456 26.6103 105.143 24.6453 103.489 22.9918C101.835 21.3383 99.8729 20.0289 97.715 19.1383C95.557 18.2478 93.2455 17.7937 90.9127 17.802ZM75.6143 34.3751C75.9162 30.5095 77.6573 26.9004 80.4901 24.268C83.3229 21.6357 87.039 20.1736 90.8971 20.1736C94.7551 20.1736 98.4712 21.6357 101.304 24.268C104.137 26.9004 105.878 30.5095 106.18 34.3751H75.6143Z" fill="#F89F1F"/>
<path d="M89.6591 22.8432C86.5154 23.2319 83.619 24.7546 81.5083 27.1283C81.3916 27.2401 81.2988 27.3745 81.2353 27.5235C81.1719 27.6724 81.1392 27.8327 81.1392 27.9947C81.1392 28.1568 81.1719 28.3171 81.2353 28.466C81.2988 28.615 81.3916 28.7494 81.5083 28.8612C81.7277 29.1133 81.9785 29.1133 82.3547 29.1133C82.5336 29.1182 82.7116 29.0873 82.8785 29.0224C83.0453 28.9575 83.1976 28.8599 83.3266 28.7352C85.0349 26.761 87.4174 25.5019 90.004 25.2063C90.3194 25.1529 90.6047 24.986 90.8066 24.7367C91.0085 24.4874 91.1132 24.1727 91.1012 23.8515C90.9131 23.2213 90.3801 22.7172 89.6591 22.8432Z" fill="#F89F1F"/>
<path d="M69.9718 34.3751H56.7737C56.6108 34.366 56.4478 34.3915 56.2953 34.45C56.1429 34.5086 56.0044 34.5988 55.8891 34.7147C55.7737 34.8307 55.6839 34.9699 55.6257 35.1231C55.5674 35.2763 55.542 35.4401 55.5511 35.6039C55.542 35.7677 55.5674 35.9315 55.6257 36.0847C55.6839 36.2379 55.7737 36.3771 55.8891 36.4931C56.0044 36.609 56.1429 36.6992 56.2953 36.7578C56.4478 36.8163 56.6108 36.8418 56.7737 36.8327H69.9718C70.136 36.8471 70.3013 36.8253 70.4561 36.7686C70.611 36.712 70.7516 36.6219 70.8682 36.5048C70.9847 36.3877 71.0743 36.2463 71.1306 36.0907C71.187 35.9351 71.2088 35.7689 71.1944 35.6039C71.1944 35.4425 71.1628 35.2827 71.1013 35.1337C71.0399 34.9846 70.9498 34.8491 70.8363 34.735C70.7228 34.6209 70.588 34.5304 70.4397 34.4686C70.2913 34.4069 70.1323 34.3751 69.9718 34.3751Z" fill="#F89F1F"/>
<path d="M73.7647 25.6474C73.8476 25.5053 73.9013 25.3479 73.9226 25.1846C73.9438 25.0213 73.9321 24.8553 73.8883 24.6966C73.8444 24.5378 73.7692 24.3896 73.6672 24.2607C73.5652 24.1317 73.4384 24.0247 73.2944 23.946L61.9146 17.2978C61.6265 17.1933 61.3108 17.1956 61.0242 17.3043C60.7376 17.4131 60.4991 17.6211 60.3516 17.891C60.2042 18.1608 60.1574 18.4747 60.2198 18.7761C60.2822 19.0775 60.4497 19.3466 60.692 19.5349L72.1032 26.1515C72.2968 26.2142 72.5052 26.2142 72.6988 26.1515C72.904 26.1617 73.1084 26.121 73.2943 26.0331C73.4802 25.9452 73.6417 25.8128 73.7647 25.6474Z" fill="#F89F1F"/>
<path d="M79.3764 17.928C79.4936 18.1133 79.6559 18.2655 79.8479 18.3702C80.0398 18.475 80.2552 18.5288 80.4737 18.5266C80.6801 18.5729 80.8942 18.5729 81.1006 18.5266C81.3836 18.3284 81.5824 18.0308 81.6578 17.6925C81.7333 17.3543 81.6799 16.9999 81.5082 16.6992L74.9248 5.29334C74.7549 5.01347 74.4877 4.80697 74.1749 4.71383C73.8622 4.62069 73.5261 4.64755 73.232 4.78921C72.9512 4.96569 72.7448 5.2399 72.6523 5.55952C72.5598 5.87914 72.5876 6.2218 72.7304 6.52214L79.3764 17.928Z" fill="#F89F1F"/>
<path d="M90.9129 15.7539C91.0758 15.7631 91.2388 15.7375 91.3913 15.679C91.5437 15.6205 91.6822 15.5303 91.7976 15.4143C91.913 15.2983 92.0027 15.1592 92.0609 15.006C92.1192 14.8527 92.1446 14.6889 92.1355 14.5251V1.22881C92.1446 1.06505 92.1192 0.901206 92.0609 0.747989C92.0027 0.594771 91.913 0.455628 91.7976 0.339652C91.6822 0.223676 91.5437 0.133477 91.3913 0.0749493C91.2388 0.016422 91.0758 -0.00911645 90.9129 2.95194e-06C90.75 -0.00911645 90.5869 0.016422 90.4345 0.0749493C90.282 0.133477 90.1436 0.223676 90.0282 0.339652C89.9128 0.455628 89.8231 0.594771 89.7648 0.747989C89.7066 0.901206 89.6812 1.06505 89.6903 1.22881V14.4936C89.6861 14.6576 89.7146 14.8208 89.7742 14.9736C89.8337 15.1263 89.9231 15.2655 90.0371 15.383C90.151 15.5004 90.2872 15.5938 90.4377 15.6575C90.5881 15.7212 90.7497 15.754 90.9129 15.7539Z" fill="#F89F1F"/>
<path d="M84.2669 15.4704C84.3493 15.7275 84.5137 15.9502 84.7347 16.104C84.9558 16.2578 85.221 16.3341 85.4895 16.3211H85.8657C86.0199 16.2887 86.1656 16.2243 86.2935 16.132C86.4215 16.0396 86.5287 15.9214 86.6085 15.7849C86.6882 15.6484 86.7386 15.4966 86.7564 15.3393C86.7743 15.1821 86.7592 15.0228 86.7121 14.8717L84.8939 8.57014C84.8579 8.41399 84.7903 8.26698 84.6953 8.13827C84.6003 8.00957 84.4799 7.90194 84.3416 7.8221C84.2033 7.74227 84.0502 7.69195 83.8917 7.67428C83.7332 7.65661 83.5728 7.67198 83.4205 7.71942C83.2663 7.75176 83.1206 7.81617 82.9926 7.90852C82.8647 8.00086 82.7575 8.11909 82.6777 8.25561C82.598 8.39212 82.5476 8.5439 82.5297 8.70117C82.5119 8.85844 82.527 9.01773 82.574 9.16879L84.2669 15.4704Z" fill="#F89F1F"/>
<path d="M74.9877 21.6144C75.099 21.7316 75.2327 21.825 75.3809 21.8887C75.5291 21.9525 75.6886 21.9854 75.8498 21.9854C76.011 21.9854 76.1706 21.9525 76.3187 21.8887C76.4669 21.825 76.6007 21.7316 76.7119 21.6144C76.9398 21.3841 77.0676 21.0726 77.0676 20.7479C77.0676 20.4232 76.9398 20.1117 76.7119 19.8815L72.1036 15.2183C71.8745 14.9893 71.5646 14.8608 71.2415 14.8608C70.9184 14.8608 70.6085 14.9893 70.3794 15.2183C70.2627 15.3301 70.1699 15.4645 70.1064 15.6135C70.043 15.7624 70.0103 15.9227 70.0103 16.0848C70.0103 16.2468 70.043 16.4071 70.1064 16.556C70.1699 16.705 70.2627 16.8394 70.3794 16.9512L74.9877 21.6144Z" fill="#F89F1F"/>
<path d="M70.724 29.2078L64.4541 27.5064C64.1476 27.4437 63.8289 27.4955 63.5576 27.6521C63.2864 27.8087 63.0813 28.0594 62.9807 28.3571C62.9125 28.6698 62.9653 28.9969 63.1283 29.2719C63.2914 29.547 63.5524 29.7493 63.8585 29.838L70.1284 31.5709H70.5046C70.7675 31.5447 71.0189 31.4493 71.2335 31.2945C71.4481 31.1396 71.6184 30.9307 71.7272 30.6887C71.7551 30.3635 71.6706 30.0386 71.4878 29.7688C71.305 29.499 71.0353 29.3009 70.724 29.2078Z" fill="#F89F1F"/>
<path d="M125.209 34.3751H112.137C111.974 34.366 111.811 34.3915 111.658 34.45C111.506 34.5086 111.367 34.5988 111.252 34.7147C111.137 34.8307 111.047 34.9699 110.989 35.1231C110.93 35.2763 110.905 35.4401 110.914 35.6039C110.9 35.7689 110.921 35.9351 110.978 36.0907C111.034 36.2463 111.124 36.3877 111.24 36.5048C111.357 36.6219 111.497 36.712 111.652 36.7686C111.807 36.8253 111.972 36.8471 112.137 36.8327H125.209C125.372 36.8418 125.535 36.8163 125.688 36.7578C125.84 36.6992 125.979 36.609 126.094 36.4931C126.209 36.3771 126.299 36.2379 126.357 36.0847C126.416 35.9315 126.441 35.7677 126.432 35.6039C126.441 35.4401 126.416 35.2763 126.357 35.1231C126.299 34.9699 126.209 34.8307 126.094 34.7147C125.979 34.5988 125.84 34.5086 125.688 34.45C125.535 34.3915 125.372 34.366 125.209 34.3751Z" fill="#F89F1F"/>
<path d="M121.666 17.802C121.482 17.5298 121.209 17.3306 120.894 17.2386C120.58 17.1466 120.243 17.1675 119.942 17.2978L108.594 23.946C108.315 24.1168 108.11 24.3853 108.017 24.6997C107.924 25.014 107.951 25.3518 108.092 25.6474C108.208 25.8365 108.369 25.9933 108.561 26.1034C108.752 26.2136 108.969 26.2734 109.189 26.2776C109.394 26.3371 109.612 26.3371 109.816 26.2776L121.165 19.6609C121.33 19.5834 121.477 19.4706 121.594 19.3303C121.712 19.1899 121.797 19.0255 121.845 18.8485C121.893 18.6715 121.902 18.4862 121.871 18.3054C121.84 18.1246 121.77 17.9528 121.666 17.802Z" fill="#F89F1F"/>
<path d="M100.882 18.3061C101.087 18.3656 101.304 18.3656 101.509 18.3061C101.727 18.2873 101.937 18.2212 102.127 18.1124C102.316 18.0036 102.48 17.8546 102.606 17.6759L109.19 6.30157C109.273 6.15709 109.328 5.99732 109.349 5.83157C109.371 5.66583 109.359 5.49741 109.316 5.33614C109.272 5.17487 109.197 5.02395 109.094 4.89219C108.992 4.76042 108.865 4.65044 108.72 4.56864C108.575 4.48125 108.414 4.42486 108.247 4.40301C108.08 4.38116 107.91 4.39433 107.748 4.44167C107.586 4.48902 107.435 4.56953 107.306 4.67814C107.176 4.78675 107.071 4.9211 106.995 5.07276L100.318 16.5731C100.173 16.8796 100.151 17.2304 100.256 17.5529C100.361 17.8754 100.585 18.145 100.882 18.3061Z" fill="#F89F1F"/>
<path d="M96.2423 16.3211H96.6184C96.879 16.301 97.1295 16.2116 97.3444 16.0621C97.5592 15.9126 97.7306 15.7084 97.8411 15.4704L99.5339 9.1688C99.6024 8.86435 99.553 8.54513 99.3958 8.27595C99.2386 8.00677 98.9853 7.8078 98.6875 7.71944C98.3805 7.64947 98.0585 7.69812 97.7856 7.85572C97.5126 8.01333 97.3086 8.26835 97.2141 8.57015L95.5212 14.8717C95.4342 15.0094 95.3841 15.1674 95.3757 15.3303C95.3674 15.4932 95.4012 15.6555 95.4738 15.8014C95.5464 15.9473 95.6553 16.0718 95.79 16.1629C95.9246 16.254 96.0804 16.3085 96.2423 16.3211Z" fill="#F89F1F"/>
<path d="M105.302 21.6144C105.524 21.8471 105.828 21.9829 106.149 21.9925C106.468 21.9766 106.77 21.8418 106.995 21.6144L111.635 16.9513C111.751 16.8394 111.844 16.705 111.908 16.5561C111.971 16.4071 112.004 16.2468 112.004 16.0848C112.004 15.9228 111.971 15.7624 111.908 15.6135C111.844 15.4646 111.751 15.3301 111.635 15.2183C111.524 15.1059 111.392 15.0167 111.247 14.9558C111.102 14.8949 110.946 14.8635 110.788 14.8635C110.631 14.8635 110.475 14.8949 110.33 14.9558C110.185 15.0167 110.053 15.1059 109.942 15.2183L105.302 19.8815C105.186 19.9933 105.093 20.1277 105.029 20.2767C104.966 20.4256 104.933 20.5859 104.933 20.748C104.933 20.91 104.966 21.0703 105.029 21.2192C105.093 21.3682 105.186 21.5026 105.302 21.6144Z" fill="#F89F1F"/>
<path d="M111.635 31.5079H112.011L118.281 29.7749C118.429 29.7381 118.569 29.6721 118.692 29.5808C118.815 29.4895 118.919 29.3747 118.998 29.2429C119.076 29.1112 119.128 28.9651 119.15 28.813C119.173 28.661 119.165 28.5061 119.127 28.3571C119.087 28.2033 119.017 28.059 118.921 27.9326C118.825 27.8063 118.705 27.7005 118.568 27.6213C118.431 27.5421 118.279 27.4911 118.123 27.4714C117.966 27.4517 117.806 27.4636 117.654 27.5064L111.384 29.2078C111.231 29.248 111.087 29.3183 110.962 29.4148C110.836 29.5113 110.731 29.632 110.652 29.7699C110.573 29.9077 110.522 30.06 110.503 30.2177C110.483 30.3755 110.495 30.5356 110.538 30.6887C110.615 30.9219 110.761 31.1256 110.958 31.2722C111.154 31.4187 111.39 31.501 111.635 31.5079Z" fill="#F89F1F"/>
<path d="M7.39843 69.8214H0V30.1215H7.39843L25.3929 54.1305C26.7963 56.4181 27.8529 58.903 28.5279 61.5034L29.7818 61.0938C28.7322 58.596 28.0765 55.9491 27.8382 53.2483V30.1215H35.2366V69.8214H27.8695L9.87503 45.8755C8.46627 43.5794 7.40945 41.0834 6.7401 38.4711L5.58017 38.9122C6.6019 41.4064 7.24647 44.0402 7.49248 46.7262L7.39843 69.8214Z" fill="white"/>
<path d="M42.1963 30.1215H49.7201V37.2108H42.1963V30.1215ZM42.6038 41.4644H49.438V69.8214H42.6038V41.4644Z" fill="white"/>
<path d="M69.8463 70.7352C67.8835 70.7326 65.9413 70.3316 64.1364 69.5563C62.3315 68.7809 60.701 67.6472 59.3426 66.2231C57.9842 64.7991 56.926 63.1139 56.2314 61.2688C55.5368 59.4236 55.2201 57.4565 55.3003 55.4854C55.2227 53.5329 55.5439 51.5851 56.2442 49.7622C56.9445 47.9393 58.0089 46.2799 59.3719 44.8865C60.7349 43.493 62.3675 42.3949 64.1689 41.66C65.9704 40.9252 67.9026 40.5691 69.8463 40.6136C71.5395 40.5261 73.2325 40.7916 74.8186 41.3934C76.4048 41.9953 77.8499 42.9206 79.063 44.111C80.0878 45.6619 80.8112 47.3939 81.1948 49.2153L82.3861 48.8372C81.5683 47.1595 80.9779 45.3792 80.6305 43.5439V41.4013H87.4646V70.5461C87.4646 78.2656 83.013 83.937 71.2571 83.937C61.8523 83.937 56.5856 79.3998 56.084 72.3736H63.4197C64.1094 76.4696 67.1503 77.4779 70.9436 77.4779C77.5896 77.4779 80.5364 74.5791 80.5364 69.7584C80.5364 68.8447 80.5364 68.12 80.5364 67.3323C80.8787 65.5603 81.4587 63.8432 82.2607 62.2281L81.1007 61.7554C80.7652 63.561 80.0838 65.2839 79.0944 66.8282C77.9035 68.0841 76.4674 69.0794 74.876 69.7517C73.2847 70.424 71.5724 70.7588 69.8463 70.7352ZM70.6928 64.0555C71.7604 64.1648 72.839 64.0498 73.8602 63.7179C74.8813 63.386 75.8226 62.8444 76.6244 62.1274C77.4262 61.4105 78.0709 60.5338 78.5177 59.5531C78.9645 58.5724 79.2036 57.5091 79.2198 56.4306V55.0127C79.2067 53.928 78.9708 52.8576 78.5269 51.8687C78.083 50.8798 77.4406 49.9938 76.6401 49.2661C75.8395 48.5384 74.898 47.9848 73.8746 47.6399C72.8512 47.295 71.768 47.1663 70.6928 47.2618C69.5644 47.1686 68.4293 47.3212 67.3649 47.7092C66.3006 48.0972 65.3321 48.7115 64.5256 49.5101C63.7191 50.3088 63.0935 51.2729 62.6917 52.3368C62.2898 53.4006 62.1211 54.5391 62.1971 55.6744C62.1151 56.8098 62.2799 57.9495 62.6801 59.0145C63.0802 60.0795 63.7062 61.0441 64.5146 61.8416C65.3229 62.639 66.2942 63.2501 67.3611 63.6324C68.4279 64.0147 69.5648 64.1591 70.6928 64.0555Z" fill="white"/>
<path d="M105.647 70.7352C103.695 70.7249 101.765 70.3171 99.9739 69.5366C98.1828 68.7561 96.5676 67.6189 95.2258 66.1938C93.884 64.7686 92.8434 63.085 92.1668 61.2446C91.4902 59.4041 91.1916 57.445 91.289 55.4854C91.1941 53.5445 91.4972 51.6048 92.1795 49.7866C92.8617 47.9684 93.9085 46.3105 95.2549 44.9159C96.6013 43.5214 98.2185 42.4198 100.006 41.6797C101.794 40.9396 103.714 40.5768 105.647 40.6137C107.268 40.5378 108.887 40.8106 110.396 41.4137C111.904 42.0168 113.267 42.9364 114.393 44.111C115.387 45.6958 116.058 47.4628 116.368 49.3098L117.56 48.9317C116.8 47.2277 116.283 45.4245 116.024 43.5754V41.4329H122.983V69.7899H115.992V67.4584C116.241 65.6172 116.759 63.823 117.528 62.1335L116.274 61.7554C115.986 63.5892 115.359 65.3525 114.425 66.9542C113.319 68.1827 111.962 69.1565 110.447 69.8091C108.932 70.4617 107.295 70.7776 105.647 70.7352ZM106.023 64.2761C108.224 64.1458 110.286 63.1511 111.764 61.5065C113.242 59.862 114.018 57.6994 113.923 55.4854C114.048 54.3907 113.934 53.2817 113.588 52.2361C113.242 51.1905 112.673 50.2336 111.92 49.4322C111.168 48.6309 110.25 48.0045 109.231 47.5969C108.213 47.1894 107.118 47.0105 106.023 47.0728C104.949 47.0648 103.884 47.2818 102.898 47.7097C101.911 48.1377 101.024 48.7673 100.293 49.5586C99.5617 50.3499 99.0023 51.2854 98.6503 52.3058C98.2983 53.3262 98.1615 54.409 98.2485 55.4854C98.1633 56.5802 98.2988 57.6811 98.647 58.7221C98.9952 59.763 99.5488 60.7226 100.275 61.5434C101.001 62.3642 101.884 63.0293 102.872 63.4989C103.859 63.9684 104.931 64.2328 106.023 64.2761Z" fill="white"/>
<path d="M133.799 47.5454H128.156V41.4644H133.799V30.7517H140.664V41.4644H148V47.5454H140.664V60.3061C140.664 62.6692 141.761 63.4569 144.395 63.4569H147.718V69.916H141.072C135.742 69.916 133.955 64.9377 133.955 60.4636L133.799 47.5454Z" fill="white"/>
</svg>
