<svg width="203" height="65" viewBox="0 0 203 65" fill="none" xmlns="http://www.w3.org/2000/svg">
<g clip-path="url(#clip0_51_6880)">
<path d="M83 28.2551L81.4724 24.3737L68.1109 29.781L67.8767 29.4328C65.3229 25.5957 61.9694 22.3633 58.0491 19.9598L66.7564 7.39404L63.355 4.99764L54.281 18.0243C50.8949 16.5442 47.2742 15.6807 43.5877 15.4742V0H39.4225V15.505C35.7052 15.7789 32.0666 16.7188 28.6783 18.2803L19.4414 4.96691L16.0297 7.39404L25.0018 20.2875C21.2231 22.6839 17.9974 25.8649 15.5409 29.6171L15.327 29.9653L1.55816 24.3737L0 28.2551L13.3004 33.6521C11.3599 37.8186 10.3584 42.3647 10.3674 46.9655C10.3674 47.5087 10.582 48.0297 10.9639 48.4138C11.3459 48.7979 11.864 49.0137 12.4042 49.0137H22.9752C23.7364 53.473 26.0407 57.5182 29.4809 60.4344C32.9211 63.3506 37.2756 64.95 41.775 64.95C46.2743 64.95 50.6289 63.3506 54.069 60.4344C57.5092 57.5182 59.8135 53.473 60.5747 49.0137H71.1458C71.686 49.0137 72.204 48.7979 72.586 48.4138C72.968 48.0297 73.1826 47.5087 73.1826 46.9655C73.1811 42.2799 72.1372 37.6541 70.1274 33.4268L83 28.2551ZM42.0194 44.9582C40.939 44.9582 39.9029 45.3898 39.1389 46.1581C38.375 46.9263 37.9458 47.9682 37.9458 49.0547H56.6641C55.8907 52.4436 53.997 55.4684 51.2925 57.6346C48.5879 59.8009 45.2326 60.9804 41.775 60.9804C38.3174 60.9804 34.962 59.8009 32.2575 57.6346C29.553 55.4684 27.6592 52.4436 26.8859 49.0547C26.7322 48.3808 26.63 47.696 26.5804 47.0065C26.5804 46.8119 26.5804 46.6071 26.5804 46.4125C26.5804 45.9311 26.6415 45.3884 26.7026 44.9685C27.1523 41.7943 28.5785 38.8411 30.7811 36.523C32.9838 34.2048 35.8526 32.6378 38.9854 32.0416C42.1182 31.4454 45.358 31.8499 48.2507 33.1984C51.1434 34.5469 53.544 36.7718 55.1161 39.5612C55.6338 40.4927 56.3944 41.2645 57.3158 41.7938C58.2451 42.3317 59.2988 42.6142 60.371 42.613C59.3546 38.1886 56.8101 34.2704 53.1905 31.5554C49.5708 28.8404 45.1107 27.5048 40.6037 27.7862C36.0967 28.0676 31.8352 29.9478 28.5774 33.0922C25.3195 36.2367 23.2766 40.4414 22.8123 44.9582H14.5123C14.7522 41.6096 15.6086 38.335 17.0379 35.3009C17.5844 34.1113 18.2247 32.9674 18.9525 31.8804C22.8047 25.9968 28.7562 21.825 35.5785 20.2261C42.4008 18.6272 49.5732 19.7233 55.6151 23.2882L55.7882 23.4008C59.2646 25.5066 62.2374 28.3562 64.4956 31.7473C65.2188 32.8408 65.8654 33.9838 66.4306 35.1678C67.9122 38.2489 68.7969 41.5854 69.0377 44.9992L42.0194 44.9582Z" fill="#F79E1F"/>
</g>
<path d="M97.9487 38.2571V53.8942H93V27H97.9487L110 43.2518C110.982 44.558 111.586 46.6712 112.115 48.2464L112.946 47.9774C112.417 46.4022 111.662 44.3659 111.662 42.6755V27H116.61V53.8942H111.662L99.6109 37.6808C98.5909 36.3361 97.9865 34.2614 97.4576 32.6478L96.6643 32.9551C97.1932 34.5304 97.9487 36.5666 97.9487 38.2571Z" fill="white"/>
<path d="M123.136 31.8025V27H128.16V31.8025H123.136ZM123.4 53.8942V34.684H127.971V53.8942H123.4Z" fill="white"/>
<path d="M149.775 51.8963C148.302 53.51 146.186 54.5089 143.542 54.5089C137.837 54.5089 133.795 49.8985 133.795 44.1738C133.795 38.4492 137.837 34.1077 143.542 34.1077C146.148 34.1077 148.264 34.9914 149.699 36.5282C150.493 37.335 150.719 38.9103 151.135 39.986L151.928 39.7171C151.513 38.6029 150.833 37.2966 150.757 36.144L150.681 34.684H155.328V54.432C155.29 59.6572 152.344 63.4992 144.486 63.4992C138.102 63.4992 134.664 60.4256 134.324 55.6615H139.235C139.688 58.4277 141.728 59.1193 144.259 59.1193C148.717 59.1193 150.681 57.1599 150.681 53.8942C150.681 53.2794 150.681 52.78 150.719 52.2421C150.795 51.1279 151.513 49.8216 151.89 48.7843L151.097 48.4769C150.719 49.5527 150.53 51.0895 149.775 51.8963ZM138.404 44.3659C138.404 47.5548 140.368 49.9753 144.108 49.9753C147.659 49.9753 149.624 47.8238 149.813 44.827V43.8665C149.624 40.9081 147.659 38.6797 144.108 38.6797C140.368 38.6797 138.404 41.1386 138.404 44.3659Z" fill="white"/>
<path d="M175.285 51.9731C173.888 53.5484 171.923 54.5089 169.392 54.5089C163.763 54.5089 159.797 49.8985 159.797 44.1738C159.797 38.4492 163.763 34.1077 169.392 34.1077C171.923 34.1077 173.888 34.9914 175.248 36.4898C176.041 37.335 176.192 38.9103 176.57 40.0245L177.363 39.7555C177.023 38.6413 176.343 37.2966 176.343 36.144L176.305 34.684H180.952V53.8942H176.305L176.343 52.3189C176.343 51.1663 177.023 49.7832 177.363 48.7074L176.532 48.4385C176.192 49.5143 176.041 51.0895 175.285 51.9731ZM164.443 44.1738C164.443 47.4011 166.521 50.129 169.657 50.129C172.754 50.129 174.832 47.3243 174.945 44.1738C174.945 40.7929 173.094 38.4876 169.657 38.4876C166.521 38.4876 164.443 40.9081 164.443 44.1738Z" fill="white"/>
<path d="M190.116 47.4396V38.795H186.338V34.684H190.116V27.4226H194.724V34.684H199.635V38.795H194.724V47.4396C194.724 49.0532 195.442 49.5143 197.218 49.5143H199.446V53.8942H194.875C191.324 53.8942 190.116 50.5132 190.116 47.4396Z" fill="white"/>
<path d="M162.055 60.524L164.558 58.2765H166.145L163.472 60.8602L166.409 65H164.907L162.556 61.5998L161.706 62.3682V65H160.506V58.2765H161.706V60.3608C161.706 60.6489 161.536 60.9563 161.423 61.2156L161.611 61.3021C161.725 61.0523 161.848 60.7065 162.055 60.524Z" fill="#F79E1F"/>
<path d="M167.971 64.9904L170.407 58.2573H171.824L174.374 64.9904H173.08L172.192 62.6468H170.086L169.274 64.9904H167.971ZM172.041 61.7055L171.267 59.9189C171.182 59.7172 171.229 59.4387 171.229 59.2274H171.012C171.012 59.4387 171.059 59.7172 170.974 59.9189L170.199 61.7055H172.041Z" fill="#F79E1F"/>
<path d="M181.206 59.4963H177.834V61.2252H180.686V62.4355H177.834V65H176.597V58.2765H181.206V59.4963Z" fill="#F79E1F"/>
<path d="M188.495 59.4963H185.123V61.2252H187.975V62.4355H185.123V65H183.886V58.2765H188.495V59.4963Z" fill="#F79E1F"/>
<path d="M191.175 65V58.2765H195.784V59.4483H192.374V60.9851H195.548V62.1569H192.374V63.8282H195.831V65H191.175Z" fill="#F79E1F"/>
<path d="M198.344 65V58.2765H202.953V59.4483H199.543V60.9851H202.717V62.1569H199.543V63.8282H203V65H198.344Z" fill="#F79E1F"/>
<defs>
<clipPath id="clip0_51_6880">
<rect width="83" height="65" fill="white"/>
</clipPath>
</defs>
</svg>
