<svg width="124" height="66" viewBox="0 0 124 66" fill="none" xmlns="http://www.w3.org/2000/svg">
<path d="M61.7705 31.738C53.565 31.738 45.6956 35.019 39.8934 40.8593C34.0913 46.6995 30.8316 54.6206 30.8316 62.88C30.8076 63.1637 30.8444 63.4493 30.9397 63.7173C31.035 63.9854 31.1865 64.2297 31.3839 64.4336C31.5813 64.6375 31.82 64.7963 32.0837 64.8991C32.3475 65.002 32.6301 65.0465 32.9125 65.0296H90.738C91.0226 65.0456 91.3073 65.0009 91.5736 64.8985C91.8399 64.7962 92.0817 64.6384 92.2833 64.4355C92.4848 64.2326 92.6416 63.9892 92.7433 63.7211C92.845 63.4531 92.8894 63.1665 92.8736 62.88C92.8664 58.7785 92.0558 54.7187 90.4882 50.9328C88.9205 47.147 86.6266 43.7094 83.7377 40.8169C80.8488 37.9244 77.4216 35.6336 73.6522 34.0758C69.8828 32.5179 65.8452 31.7235 61.7705 31.738ZM35.0481 60.7304C35.5755 53.968 38.6167 47.6544 43.5648 43.0495C48.513 38.4445 55.0041 35.8869 61.7431 35.8869C68.4821 35.8869 74.9732 38.4445 79.9213 43.0495C84.8695 47.6544 87.9107 53.968 88.4381 60.7304H35.0481Z" fill="#F89F1F"/>
<path d="M59.5809 40.557C54.0896 41.237 49.0304 43.9008 45.3435 48.0531C45.1398 48.2487 44.9776 48.4839 44.8667 48.7444C44.7559 49.005 44.6988 49.2854 44.6988 49.5689C44.6988 49.8523 44.7559 50.1327 44.8667 50.3933C44.9776 50.6538 45.1398 50.889 45.3435 51.0846C45.7269 51.5256 46.1649 51.5256 46.822 51.5256C47.1344 51.5342 47.4454 51.4802 47.7369 51.3666C48.0283 51.2531 48.2944 51.0823 48.5196 50.8641C51.5036 47.4106 55.6652 45.208 60.1832 44.6909C60.7342 44.5975 61.2326 44.3055 61.5853 43.8694C61.9379 43.4332 62.1208 42.8827 62.0998 42.3208C61.7712 41.2184 60.8403 40.3365 59.5809 40.557Z" fill="#F89F1F"/>
<path d="M25.1923 60.7307H2.13874C1.85413 60.7147 1.56938 60.7594 1.30309 60.8618C1.03681 60.9642 0.794994 61.122 0.593434 61.3249C0.391873 61.5277 0.235105 61.7712 0.133387 62.0392C0.0316697 62.3072 -0.0127147 62.5938 0.00313437 62.8803C-0.0127147 63.1668 0.0316697 63.4534 0.133387 63.7215C0.235105 63.9895 0.391873 64.2329 0.593434 64.4358C0.794994 64.6387 1.03681 64.7965 1.30309 64.8988C1.56938 65.0012 1.85413 65.0459 2.13874 65.0299H25.1923C25.479 65.0552 25.7678 65.0169 26.0383 64.9178C26.3088 64.8187 26.5544 64.6612 26.758 64.4563C26.9615 64.2514 27.118 64.0042 27.2165 63.7319C27.3149 63.4596 27.353 63.169 27.3279 62.8803C27.3279 62.598 27.2726 62.3185 27.1653 62.0577C27.058 61.7969 26.9007 61.5599 26.7024 61.3603C26.5041 61.1607 26.2686 61.0024 26.0095 60.8943C25.7504 60.7863 25.4727 60.7307 25.1923 60.7307Z" fill="#F89F1F"/>
<path d="M31.8176 45.4624C31.9625 45.2139 32.0563 44.9385 32.0934 44.6528C32.1305 44.367 32.1101 44.0767 32.0335 43.799C31.9569 43.5213 31.8256 43.262 31.6474 43.0364C31.4692 42.8109 31.2477 42.6237 30.9962 42.486L11.1187 30.856C10.6155 30.6731 10.0639 30.6771 9.56333 30.8674C9.06277 31.0576 8.64616 31.4215 8.38857 31.8935C8.13097 32.3656 8.04932 32.9147 8.15833 33.442C8.26734 33.9692 8.55984 34.44 8.98313 34.7694L28.9154 46.3443C29.2537 46.4539 29.6176 46.4539 29.9558 46.3443C30.3142 46.362 30.6714 46.2909 30.996 46.1371C31.3206 45.9833 31.6028 45.7516 31.8176 45.4624Z" fill="#F89F1F"/>
<path d="M41.6196 31.9583C41.8243 32.2824 42.1077 32.5487 42.4431 32.7319C42.7784 32.9151 43.1546 33.0093 43.5362 33.0056C43.8968 33.0864 44.2707 33.0864 44.6314 33.0056C45.1256 32.6588 45.4729 32.1382 45.6046 31.5464C45.7364 30.9546 45.6432 30.3347 45.3432 29.8087L33.8438 9.85574C33.547 9.36616 33.0803 9.0049 32.534 8.84197C31.9877 8.67903 31.4007 8.72603 30.8869 8.97384C30.3963 9.28256 30.0359 9.76225 29.8743 10.3214C29.7127 10.8805 29.7613 11.48 30.0107 12.0054L41.6196 31.9583Z" fill="#F89F1F"/>
<path d="M61.771 28.1552C62.0556 28.1712 62.3403 28.1265 62.6066 28.0241C62.8729 27.9218 63.1147 27.764 63.3163 27.5611C63.5178 27.3582 63.6746 27.1148 63.7763 26.8468C63.878 26.5787 63.9224 26.2921 63.9066 26.0056V2.74556C63.9224 2.45908 63.878 2.17246 63.7763 1.90443C63.6746 1.63639 63.5178 1.39298 63.3163 1.1901C63.1147 0.987213 62.8729 0.829422 62.6066 0.727037C62.3403 0.624651 62.0556 0.579975 61.771 0.595928C61.4864 0.579975 61.2016 0.624651 60.9353 0.727037C60.6691 0.829422 60.4272 0.987213 60.2257 1.1901C60.0241 1.39298 59.8674 1.63639 59.7656 1.90443C59.6639 2.17246 59.6195 2.45908 59.6354 2.74556V25.9505C59.6281 26.2374 59.6779 26.5229 59.7819 26.7901C59.886 27.0573 60.0422 27.3008 60.2412 27.5063C60.4402 27.7118 60.6781 27.875 60.9409 27.9865C61.2036 28.098 61.4859 28.1553 61.771 28.1552Z" fill="#F89F1F"/>
<path d="M50.162 27.6594C50.3059 28.1092 50.5931 28.4988 50.9792 28.7678C51.3652 29.0369 51.8286 29.1703 52.2976 29.1476H52.9547C53.224 29.091 53.4785 28.9783 53.702 28.8168C53.9254 28.6552 54.1128 28.4484 54.252 28.2096C54.3913 27.9708 54.4794 27.7053 54.5105 27.4301C54.5417 27.155 54.5154 26.8764 54.4332 26.6121L51.2571 15.5884C51.1943 15.3152 51.0763 15.0581 50.9103 14.8329C50.7443 14.6078 50.534 14.4195 50.2925 14.2798C50.0509 14.1402 49.7834 14.0521 49.5066 14.0212C49.2297 13.9903 48.9495 14.0172 48.6835 14.1002C48.4142 14.1568 48.1596 14.2694 47.9362 14.431C47.7127 14.5925 47.5254 14.7994 47.3861 15.0382C47.2468 15.277 47.1588 15.5425 47.1276 15.8176C47.0964 16.0927 47.1228 16.3714 47.205 16.6356L50.162 27.6594Z" fill="#F89F1F"/>
<path d="M33.9537 38.4072C34.148 38.6123 34.3817 38.7756 34.6405 38.8872C34.8994 38.9987 35.178 39.0562 35.4596 39.0562C35.7412 39.0562 36.0198 38.9987 36.2786 38.8872C36.5375 38.7756 36.7711 38.6123 36.9655 38.4072C37.3634 38.0044 37.5868 37.4595 37.5868 36.8915C37.5868 36.3234 37.3634 35.7785 36.9655 35.3757L28.9159 27.2181C28.5157 26.8176 27.9744 26.5928 27.41 26.5928C26.8457 26.5928 26.3043 26.8176 25.9042 27.2181C25.7004 27.4137 25.5382 27.6489 25.4273 27.9095C25.3165 28.17 25.2594 28.4505 25.2594 28.7339C25.2594 29.0173 25.3165 29.2978 25.4273 29.5583C25.5382 29.8189 25.7004 30.0541 25.9042 30.2497L33.9537 38.4072Z" fill="#F89F1F"/>
<path d="M26.5064 51.6907L15.5546 48.7143C15.0192 48.6047 14.4624 48.6953 13.9886 48.9693C13.5148 49.2432 13.1565 49.6817 12.9809 50.2025C12.8618 50.7496 12.954 51.3218 13.2388 51.8029C13.5235 52.2841 13.9795 52.6381 14.5142 52.7931L25.466 55.8246H26.1231C26.5823 55.7787 27.0215 55.612 27.3964 55.341C27.7712 55.0701 28.0687 54.7046 28.2587 54.2813C28.3075 53.7125 28.1598 53.1441 27.8405 52.6722C27.5213 52.2002 27.0501 51.8536 26.5064 51.6907Z" fill="#F89F1F"/>
<path d="M121.678 60.7307H98.8432C98.5586 60.7147 98.2738 60.7594 98.0075 60.8618C97.7413 60.9642 97.4994 61.122 97.2979 61.3249C97.0963 61.5277 96.9395 61.7712 96.8378 62.0392C96.7361 62.3072 96.6917 62.5938 96.7076 62.8803C96.6825 63.169 96.7205 63.4596 96.819 63.7319C96.9174 64.0042 97.0739 64.2514 97.2775 64.4563C97.481 64.6612 97.7267 64.8187 97.9972 64.9178C98.2677 65.0169 98.5564 65.0552 98.8432 65.0299H121.678C121.962 65.0459 122.247 65.0012 122.513 64.8988C122.78 64.7965 123.021 64.6387 123.223 64.4358C123.425 64.2329 123.581 63.9895 123.683 63.7215C123.785 63.4534 123.829 63.1668 123.813 62.8803C123.829 62.5938 123.785 62.3072 123.683 62.0392C123.581 61.7712 123.425 61.5277 123.223 61.3249C123.021 61.122 122.78 60.9642 122.513 60.8618C122.247 60.7594 121.962 60.7147 121.678 60.7307Z" fill="#F89F1F"/>
<path d="M115.489 31.7381C115.167 31.2619 114.69 30.9135 114.141 30.7525C113.591 30.5916 113.003 30.6283 112.478 30.8562L92.6548 42.4862C92.1684 42.785 91.8095 43.2548 91.6476 43.8047C91.4857 44.3546 91.5324 44.9454 91.7786 45.4627C91.9806 45.7934 92.262 46.0678 92.5969 46.2604C92.9318 46.453 93.3095 46.5578 93.6952 46.565C94.0529 46.6691 94.4326 46.6691 94.7904 46.565L114.613 34.9901C114.902 34.8545 115.158 34.6571 115.363 34.4117C115.569 34.1662 115.718 33.8786 115.802 33.5689C115.885 33.2593 115.9 32.935 115.846 32.6188C115.792 32.3026 115.671 32.002 115.489 31.7381Z" fill="#F89F1F"/>
<path d="M79.1847 32.6197C79.5424 32.7238 79.9221 32.7238 80.2799 32.6197C80.6596 32.5868 81.0277 32.4712 81.3587 32.2808C81.6896 32.0905 81.9755 31.8299 82.1964 31.5173L93.6958 11.6195C93.8419 11.3667 93.9366 11.0872 93.9744 10.7973C94.0121 10.5073 93.9922 10.2127 93.9158 9.93058C93.8393 9.64846 93.7079 9.38446 93.5291 9.15395C93.3503 8.92345 93.1278 8.73104 92.8744 8.58795C92.622 8.43508 92.3409 8.33643 92.0488 8.29821C91.7566 8.25998 91.4598 8.28301 91.1769 8.36584C90.8941 8.44867 90.6313 8.58951 90.4051 8.7795C90.1789 8.9695 89.9943 9.20454 89.8627 9.46984L78.199 29.5881C77.9458 30.1243 77.9069 30.7379 78.0904 31.3021C78.2738 31.8662 78.6656 32.3379 79.1847 32.6197Z" fill="#F89F1F"/>
<path d="M71.0799 29.1474H71.737C72.1921 29.1122 72.6298 28.9559 73.005 28.6944C73.3803 28.4328 73.6798 28.0756 73.8726 27.6592L76.8296 16.6355C76.9492 16.1029 76.8629 15.5444 76.5883 15.0735C76.3137 14.6026 75.8714 14.2546 75.3511 14.1C74.8149 13.9776 74.2525 14.0627 73.7757 14.3384C73.2989 14.6141 72.9426 15.0603 72.7775 15.5882L69.8205 26.6119C69.6684 26.8528 69.5809 27.1291 69.5664 27.4141C69.5519 27.6991 69.6109 27.983 69.7377 28.2383C69.8644 28.4935 70.0547 28.7114 70.2899 28.8707C70.5251 29.03 70.7973 29.1253 71.0799 29.1474Z" fill="#F89F1F"/>
<path d="M86.9055 38.4074C87.2931 38.8145 87.8241 39.0521 88.384 39.0688C88.9414 39.041 89.4685 38.8052 89.8625 38.4074L97.9668 30.2498C98.1706 30.0542 98.3328 29.8191 98.4437 29.5585C98.5545 29.298 98.6116 29.0175 98.6116 28.7341C98.6116 28.4507 98.5545 28.1702 98.4437 27.9097C98.3328 27.6491 98.1706 27.4139 97.9668 27.2183C97.7734 27.0217 97.5431 26.8656 97.2893 26.759C97.0355 26.6525 96.7633 26.5977 96.4883 26.5977C96.2134 26.5977 95.9412 26.6525 95.6874 26.759C95.4336 26.8656 95.2033 27.0217 95.0099 27.2183L86.9055 35.3759C86.7018 35.5715 86.5395 35.8067 86.4287 36.0672C86.3179 36.3278 86.2607 36.6082 86.2607 36.8916C86.2607 37.1751 86.3179 37.4555 86.4287 37.7161C86.5395 37.9766 86.7018 38.2118 86.9055 38.4074Z" fill="#F89F1F"/>
<path d="M97.967 55.7146H98.6241L109.576 52.6831C109.835 52.6187 110.079 52.5033 110.294 52.3436C110.509 52.1838 110.69 51.9829 110.828 51.7524C110.965 51.5219 111.056 51.2663 111.095 51.0004C111.134 50.7344 111.12 50.4634 111.054 50.2028C110.985 49.9337 110.862 49.6813 110.695 49.4603C110.527 49.2393 110.317 49.0541 110.077 48.9156C109.838 48.777 109.573 48.6879 109.299 48.6534C109.025 48.6189 108.747 48.6397 108.481 48.7146L97.5289 51.691C97.2615 51.7612 97.0108 51.8843 96.7912 52.0531C96.5717 52.222 96.3877 52.4331 96.2501 52.6743C96.1124 52.9154 96.0239 53.1817 95.9896 53.4577C95.9553 53.7336 95.976 54.0137 96.0504 54.2815C96.1851 54.6895 96.4413 55.0459 96.7842 55.3023C97.127 55.5587 97.54 55.7026 97.967 55.7146Z" fill="#F89F1F"/>
</svg>
