<svg width="1728" height="937" viewBox="0 0 1728 937" fill="none" xmlns="http://www.w3.org/2000/svg">
<g clip-path="url(#clip0_165_5290)">
<rect width="1728" height="937" fill="#F79E1E"/>
<g opacity="0.2">
<path d="M1222.32 411.867C1217.7 410.095 1212.4 411.626 1209.72 415.5C1201.61 427.209 1198.72 436.537 1200.88 444.025C1202.69 450.327 1206.65 454.307 1210.14 457.82C1213.48 461.186 1216.37 464.091 1217.55 468.742C1219.34 475.836 1216.37 484.157 1208.72 493.464L1214.65 497.606C1223.71 486.595 1227.12 476.36 1224.8 467.184C1223.18 460.787 1219.17 456.75 1215.63 453.189C1212.44 449.97 1209.42 446.934 1208.07 442.262C1206.5 436.814 1209.17 429.049 1215.99 419.19C1216.73 418.126 1218.19 417.712 1219.47 418.199C1236.12 424.575 1248.2 444.248 1248.2 464.982C1248.2 491.629 1231.21 513.305 1210.32 513.305C1189.43 513.305 1172.44 491.629 1172.44 464.982C1172.44 441.953 1185.31 422.006 1203.03 417.561L1201.08 410.943C1180.17 416.187 1165 438.912 1165 464.982C1165 495.41 1185.33 520.163 1210.33 520.163C1235.32 520.163 1255.65 495.41 1255.65 464.982C1255.65 441.225 1241.94 419.38 1222.32 411.867Z" fill="white"/>
<path d="M1270.64 320.196C1265.71 320.587 1261.59 324.253 1260.83 328.907C1258.57 342.966 1259.98 352.628 1265.15 358.456C1269.5 363.361 1274.79 365.247 1279.45 366.914C1283.91 368.512 1287.77 369.888 1290.84 373.578C1295.52 379.205 1296.42 387.996 1293.53 399.692L1300.67 400.873C1304.09 387.034 1302.76 376.328 1296.71 369.047C1292.5 363.971 1287.14 362.056 1282.41 360.367C1278.14 358.84 1274.11 357.399 1270.88 353.765C1267.12 349.525 1266.17 341.37 1268.09 329.533C1268.3 328.254 1269.44 327.25 1270.8 327.141C1288.57 325.719 1307.95 338.266 1316.88 356.975C1328.37 381.022 1322.37 407.904 1303.52 416.905C1284.67 425.907 1260 413.669 1248.52 389.622C1238.59 368.841 1241.61 345.297 1255.69 333.647L1251.07 328.519C1234.47 342.258 1230.57 369.303 1241.8 392.829C1254.92 420.286 1283.93 433.862 1306.48 423.091C1329.03 412.323 1336.72 381.222 1323.61 353.765C1313.37 332.328 1291.59 318.521 1270.64 320.196Z" fill="white"/>
<path d="M1405.48 408.158C1402.08 404.561 1396.64 403.646 1392.54 405.976C1380.17 413.021 1373.52 420.178 1372.22 427.861C1371.13 434.328 1372.98 439.63 1374.6 444.306C1376.15 448.786 1377.5 452.655 1376.55 457.358C1375.1 464.531 1368.81 470.743 1357.89 475.821L1361.44 482.123C1374.37 476.119 1381.88 468.37 1383.76 459.094C1385.07 452.628 1383.21 447.253 1381.56 442.511C1380.07 438.225 1378.67 434.183 1379.47 429.388C1380.42 423.797 1386.18 417.95 1396.6 412.019C1397.73 411.38 1399.23 411.639 1400.16 412.63C1412.41 425.587 1414.78 448.551 1405.81 467.24C1394.27 491.261 1369.57 503.443 1350.74 494.4C1331.91 485.356 1325.98 458.461 1337.52 434.44C1347.49 413.682 1367.72 401.272 1385.62 404.939L1386.72 398.127C1365.61 393.803 1342.1 407.719 1330.81 431.22C1317.64 458.648 1325.25 489.763 1347.78 500.585C1370.3 511.404 1399.35 497.895 1412.53 470.467C1422.81 449.049 1419.91 423.425 1405.48 408.158Z" fill="white"/>
</g>
<g opacity="0.2">
<path d="M1537.32 292.867C1532.7 291.095 1527.4 292.626 1524.72 296.5C1516.61 308.209 1513.72 317.537 1515.88 325.025C1517.69 331.327 1521.65 335.307 1525.14 338.82C1528.48 342.186 1531.37 345.091 1532.55 349.742C1534.34 356.836 1531.37 365.157 1523.72 374.464L1529.65 378.606C1538.71 367.595 1542.12 357.36 1539.8 348.184C1538.18 341.787 1534.17 337.75 1530.63 334.189C1527.44 330.97 1524.42 327.934 1523.07 323.262C1521.5 317.814 1524.17 310.049 1530.99 300.19C1531.73 299.126 1533.19 298.712 1534.47 299.199C1551.12 305.575 1563.2 325.248 1563.2 345.982C1563.2 372.629 1546.21 394.305 1525.32 394.305C1504.43 394.305 1487.44 372.629 1487.44 345.982C1487.44 322.953 1500.31 303.006 1518.03 298.561L1516.08 291.943C1495.17 297.187 1480 319.912 1480 345.982C1480 376.41 1500.33 401.163 1525.33 401.163C1550.32 401.163 1570.65 376.41 1570.65 345.982C1570.65 322.225 1556.94 300.38 1537.32 292.867Z" fill="white"/>
<path d="M1585.64 201.196C1580.71 201.587 1576.59 205.253 1575.83 209.907C1573.57 223.966 1574.98 233.628 1580.15 239.456C1584.5 244.361 1589.79 246.247 1594.45 247.914C1598.91 249.512 1602.77 250.888 1605.84 254.578C1610.52 260.205 1611.42 268.996 1608.53 280.692L1615.67 281.873C1619.09 268.034 1617.76 257.328 1611.71 250.047C1607.5 244.971 1602.14 243.056 1597.41 241.367C1593.14 239.84 1589.11 238.399 1585.88 234.765C1582.12 230.525 1581.17 222.37 1583.09 210.533C1583.3 209.254 1584.44 208.25 1585.8 208.141C1603.57 206.719 1622.95 219.266 1631.88 237.975C1643.37 262.022 1637.37 288.904 1618.52 297.905C1599.67 306.907 1575 294.669 1563.52 270.622C1553.59 249.841 1556.61 226.297 1570.69 214.647L1566.07 209.519C1549.47 223.258 1545.57 250.303 1556.8 273.829C1569.92 301.286 1598.93 314.862 1621.48 304.091C1644.03 293.323 1651.72 262.222 1638.61 234.765C1628.37 213.328 1606.59 199.521 1585.64 201.196Z" fill="white"/>
<path d="M1720.48 289.158C1717.08 285.561 1711.64 284.646 1707.54 286.976C1695.17 294.021 1688.52 301.178 1687.22 308.861C1686.13 315.328 1687.98 320.63 1689.6 325.306C1691.15 329.786 1692.5 333.655 1691.55 338.358C1690.1 345.531 1683.81 351.743 1672.89 356.821L1676.44 363.123C1689.37 357.119 1696.88 349.37 1698.76 340.094C1700.07 333.628 1698.21 328.253 1696.56 323.511C1695.07 319.225 1693.67 315.183 1694.47 310.388C1695.42 304.797 1701.18 298.95 1711.6 293.019C1712.73 292.38 1714.23 292.639 1715.16 293.63C1727.41 306.587 1729.78 329.551 1720.81 348.24C1709.27 372.261 1684.57 384.443 1665.74 375.4C1646.91 366.356 1640.98 339.461 1652.52 315.44C1662.49 294.682 1682.72 282.272 1700.62 285.939L1701.72 279.127C1680.61 274.803 1657.1 288.719 1645.81 312.22C1632.64 339.648 1640.25 370.763 1662.78 381.585C1685.3 392.404 1714.35 378.895 1727.53 351.467C1737.81 330.049 1734.91 304.425 1720.48 289.158Z" fill="white"/>
</g>
</g>
<defs>
<clipPath id="clip0_165_5290">
<rect width="1728" height="937" fill="white"/>
</clipPath>
</defs>
</svg>
